<svg width="249" height="236" viewBox="0 0 249 236" fill="none" xmlns="http://www.w3.org/2000/svg">
<path fill-rule="evenodd" clip-rule="evenodd" d="M109.694 0.0838929C141.463 -1.62146 166.225 22.9745 188.662 46.35C216.31 75.1546 254.998 104.379 248.216 144.399C241.293 185.254 196.382 202.75 159.451 218.723C125.79 233.282 88.529 244.314 55.8032 227.622C23.342 211.064 3.57649 174.862 0.248336 137.52C-2.64672 105.037 20.3228 79.4683 40.3566 54.3109C59.7479 29.9604 79.2733 1.71686 109.694 0.0838929Z" fill="#F5F5F5"/>
<path d="M46.2268 89.2219C44.5132 89.492 42.7982 89.7621 41.0847 90.0315C39.9418 89.5299 38.0215 89.1054 36.8787 88.6038C37.8192 88.1015 39.2219 87.1934 39.8865 86.3616C40.059 86.1451 39.8785 85.835 39.6026 85.8808C38.1082 86.1266 36.6239 86.4638 35.2707 87.1105C34.965 87.2562 34.7597 87.5556 34.7146 87.8865C34.625 88.5345 34.6323 89.0661 34.6083 89.6721C34.5937 90.0336 34.7655 90.3837 35.0771 90.5781C36.169 91.2598 37.6874 91.7171 38.8616 91.995C41.3366 92.5824 43.6441 92.6602 46.2268 92.2315V89.2219Z" fill="#F79991"/>
<path d="M42.2832 89.8366C39.7595 90.1903 37.2365 90.544 34.7142 90.897C33.0014 90.251 31.044 89.843 29.1237 89.8473C28.7255 89.8487 28.2567 89.8959 28.0697 90.1567C27.9321 90.3489 28.0121 90.5947 28.189 90.7676C28.3652 90.9413 28.6221 91.0577 28.8726 91.1706C30.1668 91.7523 32.9694 92.3339 34.2636 92.9155C37.3166 92.6754 38.9988 92.9448 41.8559 92.1095C42.3058 91.9788 42.7505 91.8123 43.081 91.5515C43.4115 91.29 43.6132 90.917 43.5054 90.5669C43.3977 90.2174 42.7578 89.7709 42.2832 89.8366Z" fill="#F79991"/>
<path d="M43.3941 91.695C40.8718 92.048 38.3481 92.4017 35.8251 92.7554C34.113 92.1094 32.1548 91.7014 30.2345 91.7057C29.8371 91.7072 29.3676 91.7543 29.1805 92.0151C29.0436 92.2073 29.1237 92.4524 29.2999 92.6261C29.476 92.7997 29.733 92.9161 29.9841 93.029C31.2777 93.6107 34.0809 94.1916 35.3745 94.7739C38.4281 94.5338 40.1104 94.8032 42.9675 93.9679C43.4173 93.8365 43.8614 93.6707 44.1919 93.4092C44.5224 93.1484 44.7247 92.7747 44.6163 92.4253C44.5093 92.0759 43.8694 91.6286 43.3941 91.695Z" fill="#F79991"/>
<path d="M85.5935 165.81C90.0455 165.837 94.4859 166.581 98.6941 168.005C99.636 168.324 100.562 168.687 101.477 169.073C98.9168 164.351 95.9381 159.858 92.5715 155.651C92.34 155.362 92.7898 154.999 93.022 155.289C96.5867 159.742 99.7241 164.516 102.391 169.538C102.503 169.75 102.246 170.021 102.022 169.922C97.9902 168.131 93.6743 166.991 89.2688 166.567C88.0284 166.448 86.783 166.387 85.536 166.379C85.1611 166.376 85.2223 165.807 85.5935 165.81Z" fill="#1B3455"/>
<path d="M83.0404 102.962C87.1875 104.549 91.0651 106.799 94.4784 109.604C95.2427 110.232 95.9743 110.895 96.6899 111.577C96.0158 106.268 94.8678 101.027 93.2518 95.9177C93.1412 95.5668 93.693 95.3854 93.8051 95.7376C95.515 101.146 96.7095 106.705 97.3734 112.33C97.4011 112.568 97.0633 112.731 96.89 112.56C93.7752 109.475 90.1574 106.897 86.1967 104.958C85.0815 104.411 83.9409 103.918 82.7791 103.474C82.4297 103.34 82.6925 102.829 83.0404 102.962Z" fill="#1B3455"/>
<path d="M159.863 161.948C157.973 159.642 155.532 157.825 152.785 156.623C155.503 155.824 158.222 155.025 160.941 154.225C161.261 154.132 161.137 153.637 160.817 153.732C157.869 154.598 154.923 155.464 151.976 156.33C151.713 156.407 151.733 156.73 151.969 156.823C154.909 157.979 157.506 159.882 159.491 162.303C159.7 162.557 160.071 162.202 159.863 161.948Z" fill="#1B3455"/>
<path d="M141.347 164.548C137.115 163.965 132.819 163.862 128.563 164.25C127.626 164.335 126.689 164.451 125.758 164.583C128.608 161.72 131.782 159.172 135.222 157.02C136.26 156.372 137.32 155.76 138.4 155.182C138.694 155.025 138.443 154.579 138.151 154.736C134.323 156.784 130.749 159.285 127.535 162.175C126.612 163.004 125.721 163.865 124.859 164.756C124.675 164.946 124.851 165.224 125.103 165.186C129.283 164.539 133.536 164.368 137.757 164.677C138.954 164.765 140.15 164.893 141.339 165.057C141.67 165.102 141.674 164.593 141.347 164.548Z" fill="#1B3455"/>
<path d="M120.971 174.57C117.032 174.152 113.028 174.367 109.159 175.208C108.293 175.396 107.437 175.625 106.588 175.876C109.339 171.955 112.437 168.277 115.849 164.892C116.084 164.66 115.723 164.293 115.488 164.527C111.876 168.11 108.608 172.02 105.732 176.196C105.611 176.372 105.81 176.638 106.018 176.571C109.769 175.389 113.704 174.81 117.643 174.873C118.752 174.892 119.86 174.961 120.963 175.078C121.296 175.113 121.301 174.605 120.971 174.57Z" fill="#1B3455"/>
<path d="M108.532 188.952C106.038 188.952 103.353 188.187 101.431 186.651C103.267 186.641 105.123 186.635 106.994 186.635C110.411 186.635 113.775 186.654 117.071 186.689C114.621 187.822 112.069 188.727 109.385 188.922C109.104 188.942 108.819 188.952 108.532 188.952Z" fill="#2FAFB3"/>
<path d="M91.0478 187.507C90.836 187.507 90.6511 187.245 90.8549 187.08C90.9823 186.976 91.1104 186.872 91.2385 186.769C91.5166 186.764 91.7917 186.759 92.0705 186.755C91.7852 186.984 91.4998 187.214 91.2159 187.445C91.1628 187.488 91.1046 187.507 91.0478 187.507Z" fill="#1C486F"/>
<path d="M92.571 39.2431C88.1714 43.0787 85.7932 48.6478 87.3707 54.5091C88.4276 58.4354 91.0307 62.5754 89.2145 66.2246C87.6575 69.3528 83.6626 70.2981 80.7989 72.3517C77.6979 74.576 75.8606 78.398 76.0848 82.1622C76.3083 85.9256 78.5845 89.5119 81.9279 91.3675C83.8933 92.4586 86.2475 93.0302 87.7397 94.6944C89.4875 96.6436 89.5414 99.486 90.0735 102.03C91.8016 110.3 100.141 116.728 108.735 116.417C112.355 116.285 116.219 114.836 117.939 111.707C119.213 109.387 119.159 106.45 120.798 104.363C123.052 101.49 127.354 101.467 130.825 100.23C134.962 98.7551 138.241 95.1531 139.269 90.9531C140.296 86.7524 139.041 82.0815 136.038 78.9239C134.125 76.9132 131.6 75.522 129.773 73.4349C127.426 70.7525 126.445 67.1413 126.237 63.6108C126.029 60.081 126.522 56.5534 126.77 53.0257C127.164 47.4402 126.809 40.2199 121.837 36.5272C114.162 30.8266 102.21 32.6465 94.6631 37.6504C93.9257 38.1399 93.2261 38.6722 92.571 39.2431Z" fill="#245897"/>
<path d="M93.6127 41.663C89.513 45.2371 87.2964 50.426 88.7669 55.8879C89.751 59.5463 92.1765 63.4034 90.4848 66.8031C89.034 69.7184 85.3114 70.5987 82.6435 72.5129C79.7536 74.5851 78.0423 78.1463 78.2505 81.6532C78.4594 85.1602 80.5805 88.5027 83.6954 90.2312C85.5276 91.2473 87.7201 91.7803 89.1097 93.3308C90.7395 95.1472 90.789 97.7952 91.2848 100.167C92.8957 107.872 100.665 113.862 108.674 113.571C112.046 113.449 115.646 112.099 117.249 109.183C118.437 107.022 118.386 104.284 119.914 102.34C122.014 99.6637 126.021 99.6416 129.257 98.4883C133.111 97.115 136.166 93.7588 137.123 89.8446C138.081 85.9311 136.912 81.5789 134.114 78.6365C132.331 76.763 129.978 75.4668 128.277 73.5218C126.089 71.0231 125.175 67.6577 124.982 64.3687C124.788 61.079 125.247 57.7921 125.478 54.5046C125.845 49.3006 125.513 42.5726 120.882 39.1321C113.731 33.821 102.593 35.5159 95.5621 40.1789C94.8742 40.6348 94.2227 41.1307 93.6127 41.663Z" fill="#1B3455"/>
<path d="M92.8894 99.24L81.9209 112.372L78.4232 116.565L64.6107 133.107L59.7256 121.909L63.6266 115.861L72.4032 102.248L72.7504 101.715L82.8279 86.0762L92.1964 98.3347L92.8894 99.24Z" fill="#F79991"/>
<path d="M92.8885 99.2404L81.92 112.373L78.4223 116.565C75.1525 112.326 73.0014 107.191 72.4023 102.249L72.7496 101.716L82.827 86.0766L92.1955 98.3351L92.8885 99.2404Z" fill="#F46E5E"/>
<path d="M92.889 99.2402L81.9205 112.373C80.8497 111.831 79.7148 110.864 78.596 109.658C76.5003 107.423 74.4279 104.36 72.75 101.715L82.8275 86.0763L92.196 98.3348L92.889 99.2402Z" fill="#0D6EFD"/>
<path d="M78.5938 109.66C79.7184 110.864 80.8481 111.835 81.9211 112.374L92.8911 99.2388L92.1973 98.3313C87.1695 101.642 82.4212 105.302 78.5938 109.66Z" fill="#1F4F6A"/>
<path d="M64.8186 119.855C61.5473 108.206 56.5719 97.1911 50.1639 87.4113C48.9075 88.4724 47.2413 88.8875 45.9834 89.9486C48.0369 100.9 50.0329 111.565 52.0849 122.517C52.6127 125.333 53.1659 128.22 54.5329 130.633C55.6095 132.533 57.2204 134.093 59.1283 134.672C61.0355 135.25 63.2339 134.733 64.606 133.105C65.8865 131.589 66.3167 129.331 66.1631 127.227C66.0102 125.123 65.3835 121.865 64.8186 119.855Z" fill="#F79991"/>
<path d="M50.7641 87.794C50.0209 86.4907 49.0083 85.3367 47.8036 84.4242C46.2604 84.2956 44.1275 84.1277 42.5829 83.9991C41.4815 84.3742 40.3649 84.8558 39.2584 85.2602C39.008 85.3517 38.9447 85.6732 39.1456 85.8469C40.3801 86.9215 41.4029 86.7529 43.0757 85.8904C45.7275 86.725 45.2704 88.8815 46.716 89.3202C48.1617 89.7589 49.951 89.0465 50.7641 87.794Z" fill="#F79991"/>
<path d="M36.1231 92.4292C35.5597 91.2716 35.4134 89.8483 35.6761 88.7293C36.7462 88.0155 49.5396 86.1763 50.0666 86.725C50.5718 87.2517 52.2533 90.0169 52.0356 90.7078C51.7525 91.6103 51.8136 92.6492 50.9933 92.9808C48.313 94.0619 42.8863 95.2601 40.0022 95.5945C37.9735 95.8303 37.0723 94.3755 36.1231 92.4292Z" fill="#F79991"/>
<path d="M44.2185 92.6716C41.6955 93.0253 39.1724 93.3782 36.6487 93.7319C34.9373 93.086 32.9792 92.6773 31.0589 92.6823C30.6607 92.6837 30.192 92.7309 30.0049 92.9917C29.868 93.1832 29.9474 93.4297 30.1243 93.6026C30.3004 93.7755 30.5574 93.8927 30.8085 94.0056C32.102 94.5865 34.9046 95.1689 36.1988 95.7505C39.2518 95.5104 40.9348 95.7798 43.7919 94.9445C44.2417 94.8137 44.6851 94.6473 45.0163 94.3857C45.3468 94.1242 45.5491 93.7512 45.4406 93.4018C45.3336 93.0517 44.6938 92.6051 44.2185 92.6716Z" fill="#F79991"/>
<path d="M49.5612 89.1473C47.1605 89.839 44.5261 89.4146 42.4777 88.0027C42.2011 87.8119 41.9179 88.2449 42.1938 88.435C44.347 89.9198 47.1532 90.3763 49.6784 89.6489C50.0009 89.5561 49.8866 89.0537 49.5612 89.1473Z" fill="#F46E5E"/>
<path d="M152.193 121.909L129.093 86.0752L119.031 99.239L147.314 133.105L152.193 121.909Z" fill="#F79991"/>
<path d="M129.093 86.0749L139.517 102.245C138.915 107.189 136.767 112.326 133.5 116.564L119.031 99.2387L129.093 86.0749Z" fill="#F46E5E"/>
<path d="M129.093 86.0763L119.725 98.3348L119.031 99.2402L129.999 112.373C131.07 111.831 132.205 110.864 133.324 109.658C135.421 107.423 137.492 104.36 139.17 101.715L129.093 86.0763Z" fill="#0D6EFD"/>
<path d="M133.328 109.66C132.203 110.864 131.074 111.835 130 112.374L119.031 99.2388L119.724 98.3313C124.752 101.642 129.5 105.302 133.328 109.66Z" fill="#1F4F6A"/>
<path d="M147.101 119.855C150.374 108.206 155.349 97.1911 161.756 87.4113C163.013 88.4724 164.68 88.8875 165.936 89.9486C163.884 100.9 161.887 111.565 159.835 122.517C159.307 125.333 158.755 128.22 157.387 130.633C156.311 132.533 154.7 134.093 152.792 134.672C150.885 135.25 148.687 134.733 147.313 133.105C146.034 131.589 145.604 129.331 145.757 127.227C145.91 125.123 146.537 121.865 147.101 119.855Z" fill="#F79991"/>
<path d="M161.157 87.794C161.9 86.4907 162.913 85.3367 164.116 84.4242C165.661 84.2956 167.794 84.1277 169.337 83.9991C170.44 84.3742 171.556 84.8558 172.662 85.2602C172.912 85.3517 172.975 85.6732 172.776 85.8469C171.54 86.9215 170.518 86.7529 168.845 85.8904C166.194 86.725 166.651 88.8815 165.204 89.3202C163.758 89.7589 161.97 89.0465 161.157 87.794Z" fill="#F79991"/>
<path d="M167.023 88.656C168.737 88.9261 170.451 89.1962 172.166 89.4656C173.307 88.964 175.229 88.5395 176.371 88.0379C175.43 87.5356 174.028 86.6274 173.364 85.7957C173.19 85.5792 173.371 85.2691 173.648 85.3148C175.141 85.5606 176.626 85.8979 177.978 86.5445C178.284 86.6903 178.491 86.9897 178.536 87.3205C178.624 87.9686 178.616 88.5002 178.642 89.1062C178.656 89.4677 178.484 89.8178 178.173 90.0122C177.081 90.6938 175.563 91.1511 174.388 91.4291C171.912 92.0164 169.605 92.0943 167.023 91.6656V88.656Z" fill="#F79991"/>
<path d="M175.797 92.4292C176.362 91.2716 176.508 89.8483 176.246 88.7293C175.176 88.0155 162.381 86.1763 161.854 86.725C161.349 87.2517 159.669 90.0169 159.885 90.7078C160.169 91.6103 160.108 92.6492 160.929 92.9808C163.607 94.0619 169.034 95.2601 171.918 95.5945C173.947 95.8303 174.849 94.3755 175.797 92.4292Z" fill="#F79991"/>
<path d="M170.967 89.2702C173.489 89.6239 176.012 89.9776 178.536 90.3306C180.248 89.6846 182.205 89.2766 184.126 89.2809C184.524 89.2823 184.993 89.3295 185.18 89.5903C185.317 89.7825 185.237 90.0283 185.061 90.2012C184.884 90.3749 184.627 90.4913 184.377 90.6042C183.083 91.1859 180.281 91.7675 178.987 92.3491C175.933 92.109 174.251 92.3784 171.393 91.5431C170.944 91.4124 170.5 91.2459 170.169 90.9851C169.838 90.7236 169.636 90.3506 169.744 90.0004C169.852 89.651 170.492 89.2045 170.967 89.2702Z" fill="#F79991"/>
<path d="M169.854 91.1291C172.378 91.4821 174.901 91.8358 177.425 92.1895C179.136 91.5435 181.094 91.1355 183.014 91.1398C183.412 91.1412 183.882 91.1884 184.069 91.4492C184.206 91.6414 184.126 91.8865 183.949 92.0601C183.772 92.2338 183.516 92.3502 183.266 92.4631C181.971 93.0448 179.169 93.6257 177.875 94.208C174.821 93.9679 173.139 94.2373 170.281 93.402C169.832 93.2706 169.388 93.1048 169.058 92.8433C168.726 92.5825 168.525 92.2088 168.633 91.8593C168.74 91.5099 169.38 91.0626 169.854 91.1291Z" fill="#F79991"/>
<path d="M167.703 92.6716C170.226 93.0253 172.749 93.3782 175.272 93.7319C176.984 93.086 178.942 92.6773 180.862 92.6823C181.26 92.6837 181.73 92.7309 181.917 92.9917C182.054 93.1832 181.974 93.4297 181.797 93.6026C181.62 93.7755 181.364 93.8927 181.113 94.0056C179.82 94.5865 177.016 95.1689 175.723 95.7505C172.668 95.5104 170.987 95.7798 168.129 94.9445C167.68 94.8137 167.236 94.6473 166.905 94.3857C166.574 94.1242 166.373 93.7512 166.48 93.4018C166.588 93.0517 167.228 92.6051 167.703 92.6716Z" fill="#F79991"/>
<path d="M162.358 89.1473C164.76 89.839 167.394 89.4146 169.442 88.0027C169.719 87.8119 170.001 88.2449 169.726 88.435C167.572 89.9198 164.767 90.3763 162.241 89.6489C161.92 89.5561 162.033 89.0537 162.358 89.1473Z" fill="#F46E5E"/>
<path d="M129.491 142.265C127.76 139.674 125.82 137.233 123.739 135.029C120.559 134.849 96.078 134.866 93.1896 135.029C90.3572 138.027 87.7825 141.462 85.6504 145.121C100.216 147.491 115.402 146.651 129.491 142.265Z" fill="#F79991"/>
<path d="M82.8271 86.0749C82.8271 86.0749 103.808 76.7981 129.092 86.0749L123.738 135.028C110.743 140.154 93.1885 135.028 93.1885 135.028L82.8271 86.0749Z" fill="#0D6EFD"/>
<path d="M160.719 148.834C160.009 146.932 157.863 145.836 155.801 145.742C153.739 145.648 151.735 146.366 149.825 147.132C144.849 149.127 140.045 151.533 135.479 154.315C134.092 150.146 132.016 146.046 129.49 142.265C115.401 146.651 100.215 147.49 85.6494 145.121C83.9264 148.076 82.4916 151.176 81.4463 154.315C76.8815 151.533 72.0771 149.127 67.1017 147.132C65.1909 146.366 63.1869 145.648 61.1254 145.742C59.0632 145.836 56.9172 146.932 56.2061 148.834C55.3114 151.23 55.1731 154.103 56.2868 156.408C57.3999 158.714 59.1651 160.647 60.9573 162.495C66.8593 168.582 73.3867 174.18 80.8705 178.262C88.3537 182.343 96.8588 184.86 105.414 184.551C105.371 182.24 105.457 182.24 105.414 184.551C113.97 184.86 128.572 182.343 136.056 178.262C143.539 174.18 150.067 168.582 155.969 162.495C157.761 160.647 159.526 158.714 160.639 156.408C161.752 154.103 161.615 151.23 160.719 148.834Z" fill="#0D6EFD"/>
<path d="M55.5195 152.151C55.4402 153.625 55.6579 155.107 56.2868 156.408C57.3998 158.714 59.165 160.647 60.9572 162.495C66.8593 168.582 73.3866 174.18 80.8705 178.262C88.3536 182.343 96.8587 184.86 105.414 184.551C105.371 182.24 105.457 182.24 105.414 184.551C113.969 184.86 128.572 182.343 136.056 178.262C143.539 174.18 150.067 168.582 155.969 162.495C157.761 160.647 159.526 158.714 160.639 156.408C161.752 154.103 161.615 151.23 160.719 148.834C160.472 148.171 160.046 147.607 159.512 147.148C147.486 150.871 136.757 158.995 126.555 167.392C118.241 174.235 106.279 174.873 97.2875 168.912C84.4963 160.434 69.7171 153.617 55.5195 152.151Z" fill="#1F4F6A"/>
<path d="M103.237 70.8271L102.882 79.9902C102.839 81.0913 102.283 82.0824 101.451 82.8212C101.355 82.907 101.268 83.0006 101.192 83.1006C100.814 83.5993 100.68 84.3503 100.853 84.9941C101.022 85.62 107.088 96.0329 110.331 93.3277C110.825 92.9147 113.889 85.9344 114.173 85.2935C114.458 84.6533 114.522 83.8316 114.209 83.2106C114.115 83.0241 113.983 82.867 113.83 82.7483C112.98 82.091 112.29 81.2464 112.084 80.2039C111.496 77.2371 111.206 74.1882 111.149 71.1329L103.237 70.8271Z" fill="#F79991"/>
<path d="M109.679 77.142C110.324 77.0398 110.928 76.7897 111.502 76.4539C111.298 74.6919 111.182 72.9141 111.148 71.1328L103.236 70.827C103.188 72.0524 103.142 73.2778 103.094 74.5032C105.003 75.8744 107.429 77.4964 109.679 77.142Z" fill="#F46E5E"/>
<path d="M98.6159 59.5931C98.1034 59.3694 97.5779 59.1422 97.0188 59.0943C96.459 59.0472 95.849 59.2122 95.5055 59.6481C95.1175 60.1404 95.1612 60.8528 95.4116 61.4244C95.8745 62.4827 97.013 63.2208 98.1857 63.2236L98.6159 59.5931Z" fill="#F46E5E"/>
<path d="M116.377 59.5931C116.89 59.3694 117.415 59.1422 117.975 59.0943C118.534 59.0472 119.144 59.2122 119.488 59.6481C119.875 60.1404 119.832 60.8528 119.582 61.4244C119.118 62.4827 117.981 63.2208 116.807 63.2236L116.377 59.5931Z" fill="#F46E5E"/>
<path d="M107.708 73.7463C104.928 73.8671 99.0708 70.5452 98.3494 65.2755L97.9417 62.048L97.0049 56.0259C97.0049 49.8445 101.797 45.3594 107.708 45.3594C108.463 53.8409 118.41 50.1346 118.41 56.0259L117.082 63.6586C117.019 64.0165 116.994 64.3788 116.972 64.7418C116.634 70.303 111.184 73.5956 107.708 73.7463Z" fill="#F79991"/>
<path d="M109.505 68.9698C108.216 69.3256 106.854 69.3342 105.563 68.9855C105.322 68.9205 105.202 69.2827 105.443 69.3478C106.8 69.7143 108.237 69.715 109.591 69.3406C109.831 69.2749 109.747 68.9026 109.505 68.9698Z" fill="#F46E5E"/>
<path d="M103.963 58.7693C102.706 59.2151 101.33 59.193 100.09 58.7014C99.8589 58.6092 99.741 58.9722 99.971 59.0637C101.266 59.5774 102.736 59.6067 104.05 59.1408C104.281 59.0587 104.198 58.6857 103.963 58.7693Z" fill="#1B3455"/>
<path d="M115.566 58.7693C114.311 59.2151 112.933 59.193 111.694 58.7014C111.462 58.6092 111.344 58.9722 111.575 59.0637C112.869 59.5774 114.34 59.6067 115.653 59.1408C115.885 59.0587 115.801 58.6857 115.566 58.7693Z" fill="#1B3455"/>
<path d="M149.264 148.11C133.57 160.799 114.115 177.831 98.4199 190.52C100.853 195.368 100.139 194.856 102.573 199.704C120.441 193.274 142.543 184.244 156.721 171.781C159.287 169.527 161.802 167.151 163.602 164.27C165.403 161.389 166.443 157.924 165.818 154.6C165.154 151.066 162.533 147.948 159.124 146.637C155.715 145.325 152.09 145.826 149.264 148.11Z" fill="#F79991"/>
<path d="M98.4199 190.52C100.853 195.368 100.139 194.856 102.573 199.704C111.461 196.507 121.395 192.665 130.881 188.077C123.854 186.934 117.156 184.416 111.552 179.676C107.004 183.486 102.579 187.158 98.4199 190.52Z" fill="#F46E5E"/>
<path d="M165.817 154.6C165.153 151.066 162.532 147.948 159.123 146.636C155.714 145.325 152.089 145.825 149.263 148.11C137.727 157.437 124.164 169.106 111.551 179.676C117.155 184.416 123.853 186.934 130.88 188.077C140.466 183.442 149.594 178.045 156.72 171.781C159.286 169.526 161.801 167.151 163.601 164.27C165.402 161.389 166.442 157.924 165.817 154.6Z" fill="#F79991"/>
<path d="M98.7973 190.746L98.4202 190.52L80.3625 198.175C79.7379 198.439 79.165 198.769 78.6445 199.149C75.2837 201.598 74.1452 206.207 76.2736 209.968C78.8716 214.559 85.0132 215.659 89.0874 212.457C89.2993 212.29 89.5074 212.115 89.7083 211.925L102.573 199.704C103.426 196.231 101.902 192.613 98.7973 190.746Z" fill="#1B3455"/>
<path d="M67.6626 148.11C83.3568 160.799 102.812 177.831 118.506 190.52C116.073 195.368 116.719 194.549 114.287 199.397C96.4166 192.967 74.3836 184.245 60.205 171.781C57.6405 169.527 55.1254 167.151 53.3238 164.271C51.5236 161.39 50.4834 157.924 51.108 154.6C51.7726 151.066 54.3939 147.948 57.8035 146.637C61.2117 145.325 64.8368 145.826 67.6626 148.11Z" fill="#F79991"/>
<path d="M138.283 199.149C137.762 198.769 137.189 198.439 136.565 198.175L118.507 190.52L118.131 190.746C115.026 192.613 113.501 196.231 114.355 199.704L127.22 211.925C127.42 212.115 127.628 212.29 127.84 212.457C131.915 215.659 138.056 214.559 140.654 209.968C142.783 206.207 141.643 201.598 138.283 199.149Z" fill="#1B3455"/>
<path d="M107.807 64.6454C107.442 64.9677 106.884 64.9091 106.606 64.509C106.336 64.126 106.329 63.5994 106.309 63.1521C106.253 61.9031 106.249 60.6519 106.294 59.4022C106.306 59.0714 105.782 59.0478 105.771 59.3793C105.742 60.1768 105.732 60.9735 105.744 61.7709C105.755 62.4647 105.745 63.1756 105.843 63.8637C105.917 64.3811 106.124 64.9263 106.607 65.2028C107.103 65.4879 107.74 65.3957 108.161 65.0249C108.412 64.8034 108.059 64.4239 107.807 64.6454Z" fill="#F46E5E"/>
<path d="M109.543 67.0642C108.398 68.2132 106.509 68.2639 105.327 67.1342C105.086 66.9042 104.698 67.2507 104.94 67.4822C106.318 68.7977 108.544 68.7998 109.897 67.4436C110.133 67.2078 109.78 66.827 109.543 67.0642Z" fill="#1B3455"/>
<path d="M125.132 195.784C122.536 197.159 120.851 199.957 120.892 202.855C120.897 203.184 121.42 203.209 121.416 202.877C121.377 200.157 122.934 197.532 125.376 196.239C125.673 196.082 125.43 195.626 125.132 195.784Z" fill="white"/>
<path d="M129.198 197.54C126.166 198.559 124.144 201.437 124.321 204.595C124.34 204.922 124.864 204.947 124.845 204.617C124.682 201.705 126.492 198.99 129.315 198.041C129.629 197.935 129.517 197.432 129.198 197.54Z" fill="white"/>
<path d="M90.6585 195.784C93.2543 197.159 94.9394 199.957 94.8987 202.855C94.8936 203.184 94.3702 203.209 94.3746 202.877C94.4139 200.157 92.8561 197.532 90.4139 196.239C90.1176 196.082 90.3608 195.626 90.6585 195.784Z" fill="white"/>
<path d="M86.5929 197.54C89.6247 198.559 91.6469 201.437 91.47 204.595C91.4511 204.922 90.927 204.947 90.9467 204.617C91.109 201.705 89.2986 198.99 86.4764 198.041C86.1612 197.935 86.2733 197.432 86.5929 197.54Z" fill="white"/>
<path d="M107.545 95.5833C104.664 92.9688 101.7 90.2744 99.935 86.7717C99.4575 85.8257 99.0855 84.836 98.8366 83.8086C98.758 83.487 98.247 83.5999 98.3256 83.9236C99.2457 87.7235 101.796 90.8417 104.571 93.5305C105.416 94.3486 106.287 95.1403 107.158 95.9306C107.404 96.1542 107.792 95.8084 107.545 95.5833Z" fill="#1F4F6A"/>
<path d="M115.023 86.8708C114.008 89.128 112.994 91.3852 111.978 93.6417C111.843 93.9447 112.342 94.1004 112.477 93.8003C113.492 91.5431 114.507 89.2866 115.522 87.0294C115.658 86.7265 115.158 86.5707 115.023 86.8708Z" fill="#1F4F6A"/>
<path d="M144.557 149.014C137.761 151.86 131.5 155.92 126.173 160.946C124.685 162.351 123.273 163.83 121.935 165.374C121.606 165.754 122.245 166.208 122.572 165.83C127.292 160.382 133.024 155.784 139.406 152.333C141.185 151.372 143.013 150.501 144.882 149.719C145.347 149.525 145.025 148.819 144.557 149.014Z" fill="#1F4F6A"/>
<path d="M127.66 146.913C117.904 150.689 107.216 152.029 96.8011 150.834C93.8493 150.495 90.9238 149.954 88.0499 149.21C87.5644 149.085 87.2724 149.804 87.7623 149.93C98.0939 152.607 109.073 152.723 119.464 150.262C122.362 149.576 125.211 148.692 127.985 147.618C128.456 147.436 128.133 146.73 127.66 146.913Z" fill="#1F4F6A"/>
<path d="M103.888 164.555C102.665 159.89 102.478 155.021 103.34 150.278C103.429 149.788 102.646 149.703 102.557 150.191C101.684 154.992 101.872 159.95 103.11 164.673C103.235 165.151 104.015 165.037 103.888 164.555Z" fill="#E9F7E5"/>
<path d="M114.055 150.723C113.787 150.302 113.177 150.794 113.444 151.212C116.169 155.493 116.995 160.796 115.777 165.691C115.657 166.174 116.441 166.257 116.559 165.78C117.832 160.67 116.89 155.177 114.055 150.723Z" fill="#E9F7E5"/>
<path d="M115.727 55.0283C114.146 54.3437 112.328 54.3244 110.724 54.949C110.252 55.1319 110.576 55.8378 111.047 55.6542C112.461 55.104 114.051 55.1476 115.439 55.7485C115.904 55.95 116.19 55.2291 115.727 55.0283Z" fill="#1B3455"/>
<path d="M103.801 54.9587C102.134 54.4378 100.272 54.6243 98.771 55.5181C98.589 55.626 98.4791 55.8225 98.5738 56.0298C98.6531 56.202 98.9122 56.332 99.0949 56.2234C100.415 55.4374 102.035 55.2166 103.513 55.6782C103.995 55.829 104.285 55.1094 103.801 54.9587Z" fill="#1B3455"/>
<path d="M93.4484 121.166C97.3887 121.939 102.116 122.713 106.055 121.166C97.7876 119.138 91.9299 111.787 86.9014 105.319L93.19 135.028C93.19 135.028 110.744 140.154 123.739 135.028L123.804 134.434C112.588 135.589 100.683 130.931 93.4484 121.166Z" fill="#1F4F6A"/>
</svg>
