<svg width="221" height="229" viewBox="0 0 221 229" fill="none" xmlns="http://www.w3.org/2000/svg">
<g clip-path="url(#clip0_515_8863)">
<path d="M163.14 121.85C166.027 130.312 166.841 139.344 165.511 148.186C164.182 157.028 160.748 165.421 155.5 172.66L123.01 151.53C122.288 151.14 121.681 150.568 121.25 149.87C120.991 149.195 120.895 148.469 120.97 147.75L121.45 128C135.056 127.288 148.542 125.071 161.66 121.39L163.14 121.85Z" fill="#FFAF80"/>
<path d="M152 173.57C158.705 174.707 165.481 175.375 172.28 175.57L201.51 177.13C207.27 177.44 213.64 178.01 217.58 182.22C222.84 187.82 220.9 197.49 215.49 202.94C210.08 208.39 202.32 210.66 194.88 212.57C183.64 215.47 172.26 218.05 160.68 218.94C139.25 220.58 116.75 215.94 99.7598 202.78C109.58 196.78 115.27 185.56 125.12 179.66C131.12 176.03 138.27 174.72 145.2 173.48C147.39 173.09 149.7 172.7 151.79 173.48L152 173.57Z" fill="#0D6EFD"/>
<path d="M146.4 203.23C142.559 203.206 138.847 201.837 135.91 199.36C134.843 198.286 133.64 197.358 132.33 196.6C129.61 195.36 126.33 196.55 124.03 198.42C121.73 200.29 119.97 202.8 117.73 204.77C108.3 213.08 91.8002 210.77 84.3102 220.88C82.5902 223.2 82.0202 227.27 84.7002 228.35C87.0202 229.28 89.2402 227 91.3302 225.62C94.0402 223.83 97.4201 223.46 100.66 223.15C117.927 221.51 135.227 220.293 152.56 219.5C153.949 213.742 153.117 207.672 150.23 202.5L146.4 203.23Z" fill="#FFAF80"/>
<path d="M144.37 107.66C146.444 104.884 147.697 101.583 147.987 98.1299C148.277 94.6773 147.592 91.2126 146.01 88.1301C145.306 86.7811 144.511 85.4814 143.63 84.2401C139.63 78.5801 134.36 73.5501 132.2 66.9401C130.67 62.2601 130.85 57.2301 130.68 52.3101C130.179 38.1805 126.703 24.3154 120.48 11.6201C119.05 8.73006 117.34 5.75006 114.48 4.21006C110.15 1.85006 104.82 3.59006 100.21 5.37006L82.8401 12.1101C76.7501 14.3034 70.8249 16.9301 65.1101 19.9701C60.7101 22.4601 56.5902 25.4501 52.0102 27.5901C48.5502 29.2001 44.8701 30.3001 41.4701 32.0301C32.7001 36.4701 17.2301 51.6901 20.6001 52.4901C22.2805 52.4838 23.9026 51.8733 25.1701 50.7701C23.7049 51.3643 22.4051 52.3039 21.3813 53.5087C20.3574 54.7136 19.64 56.1481 19.2901 57.6901C19.2389 57.9368 19.2612 58.1931 19.354 58.4274C19.4469 58.6616 19.6064 58.8635 19.8128 59.0082C20.0191 59.1528 20.2633 59.2339 20.5152 59.2413C20.767 59.2488 21.0156 59.1823 21.2301 59.0501C22.1244 58.493 22.9414 57.8205 23.6601 57.0501C22.5745 57.5449 21.6174 58.2831 20.8631 59.2074C20.1087 60.1317 19.5773 61.2173 19.3101 62.3801C19.222 62.7285 19.2396 63.0953 19.3607 63.4336C19.4819 63.772 19.701 64.0667 19.9901 64.2801C20.8301 64.8501 21.7201 64.2801 22.4501 63.7801L27.4501 60.2301C25.8601 61.3601 24.1701 62.6201 23.9701 64.7201C23.8928 65.2939 24.017 65.8767 24.3216 66.3692C24.6261 66.8616 25.0922 67.233 25.6402 67.4201C26.8602 67.7901 27.9501 66.9801 28.8701 66.2001C33.7201 62.0801 40.1101 57.2601 43.9301 52.2001C41.5901 54.8401 37.9301 58.1001 36.9301 61.4701C36.8505 61.7371 36.8583 62.0226 36.9521 62.285C37.0459 62.5474 37.2209 62.7731 37.4517 62.9292C37.6825 63.0853 37.9572 63.1638 38.2356 63.1531C38.5141 63.1425 38.7819 63.0433 39.0002 62.8701C45.2902 57.8701 51.5002 52.6201 55.7702 45.8701C56.869 43.8066 58.212 41.8828 59.7702 40.1401C61.192 38.8594 62.792 37.7917 64.5202 36.9701C75.0638 31.3725 86.1512 26.8658 97.6101 23.5201C98.4386 23.1687 99.3672 23.1331 100.22 23.4201C101.22 23.9201 101.57 25.1801 101.77 26.3001C104.094 38.7593 105.076 51.4316 104.7 64.1001C104.49 71.2501 103.88 78.6101 106.17 85.3901C108.31 91.7301 112.8 96.9901 117.58 101.68C121.04 105.09 124.81 108.35 129.34 110.12C133.87 111.89 139.34 111.93 143.34 109.12L144.37 107.66Z" fill="#EC795C"/>
<path d="M37.25 124.92C35.56 122.01 38.2499 118.45 41.1599 116.76C44.0699 115.07 47.6299 113.87 49.1599 110.85C50.4999 108.11 49.5899 104.76 47.9899 102.16C46.3899 99.5601 44.1599 97.3801 42.5899 94.7601C36.7299 84.9901 41.2199 71.6601 35.9199 61.5701L33.39 62.8601C32.89 60.8601 32.39 58.8001 31.9 56.7701C31.8164 56.098 31.5018 55.4758 31.01 55.0101C29.39 53.7801 27.68 56.4501 27.38 58.4601C24.3133 79.4535 22.1299 100.543 20.8299 121.73C20.7475 122.292 20.82 122.866 21.0399 123.39C21.4308 123.943 21.9934 124.35 22.64 124.55C27.2 126.55 32.64 128.48 36.88 125.81L37.25 124.92Z" fill="#FFAF80"/>
<path d="M120.77 142.24C134.246 151.796 148.905 159.564 164.38 165.35C153.01 176.18 147.38 192.58 134.38 201.35C130.393 203.84 126.165 205.921 121.76 207.56C108.94 212.82 96.0495 218.11 82.5395 221.18C70.2495 223.97 57.5996 224.89 44.9996 225.18C33.9996 225.44 22.9095 225.18 12.4095 222.05C7.63951 220.62 8.21952 220.12 4.91952 216.39C-0.53048 210.25 -0.970475 200.98 1.29952 193.09C3.56952 185.2 18.8395 137.35 19.6895 120.35L35.8596 121.84C36.4198 121.829 36.9645 122.025 37.3896 122.39C37.6828 122.821 37.8171 123.341 37.7696 123.86L38.4796 162.35C38.6296 170.61 38.6095 179.48 33.9095 186.27L73.6595 176.27C74.965 176.029 76.2135 175.543 77.3396 174.84C78.4191 173.95 79.3418 172.885 80.0695 171.69C85.1286 164.607 92.3781 159.385 100.7 156.83C104.93 155.54 109.41 154.96 113.37 153C117.33 151.04 120.82 147.18 120.58 142.77L120.77 142.24Z" fill="#0D6EFD"/>
<path d="M108.93 62.5401C108.87 62.7101 96.9905 52.0601 96.9905 52.0601C96.9905 52.0601 95.7406 38.8201 92.9006 37.9701C91.991 37.7772 91.0447 37.8572 90.1805 38.2001C86.9605 39.2001 80.6205 41.4601 80.6205 41.4601L71.9505 37.8401L72.2105 44.8901C72.2105 44.8901 66.0005 47.6301 63.7205 48.8101C59.3518 51.0758 55.4152 54.0917 52.0905 57.7201C50.5236 59.2735 49.3272 61.1603 48.5905 63.2401C47.3605 67.3501 49.2106 71.6901 51.0106 75.5801C54.2706 82.5801 58.0106 90.1301 65.0106 93.5001C70.6506 96.2301 77.4405 95.6201 83.2505 93.2901C89.0605 90.9601 94.0905 87.0801 99.0405 83.2901C101.378 85.9646 103.26 89.0051 104.611 92.2901C106.677 82.5501 109.107 72.9001 111.901 63.3401L108.93 62.5401Z" fill="#FFAF80"/>
<path d="M101.24 80.5001C99.9614 86.2297 100.667 92.2236 103.24 97.5001C105.58 102.27 109.45 106.43 110.39 111.66C110.65 113.08 110.68 114.54 110.96 115.95C111.349 117.573 111.906 119.152 112.62 120.66L120.09 137.99C120.312 138.68 120.742 139.284 121.32 139.72C122.024 140.034 122.813 140.101 123.56 139.91C137.611 137.827 150.973 132.458 162.56 124.24C163.321 123.78 163.962 123.146 164.43 122.39C164.866 121.224 164.96 119.958 164.7 118.74C164.13 112.63 165.7 106.35 164.23 100.4C162.23 92.2501 155.11 86.4901 148.01 82.0301C140.91 77.5701 133.15 73.5101 128.4 66.6101C117.986 70.3205 108.316 75.8533 99.8398 82.9501L101.24 80.5001Z" fill="#FEA800"/>
<path d="M142.16 104.6C144.234 101.824 145.487 98.5225 145.777 95.0699C146.067 91.6173 145.382 88.1526 143.8 85.07C143.094 83.72 142.295 82.4203 141.41 81.18C137.41 75.52 132.14 70.49 129.99 63.88C128.46 59.21 128.63 54.17 128.46 49.25C127.963 35.1199 124.487 21.2541 118.26 8.56001C116.84 5.67001 115.13 2.69001 112.26 1.15001C107.92 -1.20999 102.59 0.530006 97.9904 2.31001L80.5404 9.06001C74.4556 11.2425 68.5397 13.8696 62.8404 16.92C58.4404 19.4 54.3104 22.39 49.7304 24.53C46.2704 26.14 42.5904 27.24 39.1904 28.97C30.4204 33.41 14.9604 48.63 18.3304 49.43C20.0108 49.4238 21.633 48.8133 22.9005 47.71C21.4336 48.306 20.1322 49.2472 19.1068 50.4537C18.0814 51.6601 17.3622 53.0962 17.0105 54.64C16.9618 54.886 16.9858 55.1409 17.0797 55.3734C17.1736 55.6059 17.3332 55.806 17.539 55.9493C17.7449 56.0925 17.9879 56.1726 18.2386 56.1799C18.4893 56.1871 18.7366 56.1211 18.9504 55.99C19.8468 55.4359 20.6643 54.7632 21.3805 53.99C20.2963 54.4854 19.3407 55.2239 18.5881 56.1483C17.8354 57.0726 17.3058 58.1579 17.0404 59.32C16.9495 59.6684 16.9658 60.036 17.0871 60.375C17.2084 60.7139 17.4292 61.0084 17.7204 61.22C18.5604 61.79 19.4504 61.22 20.1704 60.72L25.1704 57.17C23.5804 58.3 21.8804 59.56 21.6804 61.66C21.6082 62.2344 21.7345 62.8162 22.0382 63.3091C22.3419 63.8019 22.8049 64.1762 23.3504 64.37C24.5704 64.73 25.6704 63.92 26.5804 63.15C31.4304 59.02 37.8205 54.2 41.6405 49.15C39.3105 51.79 35.6405 55.05 34.6405 58.42C34.5637 58.6855 34.5728 58.9684 34.6666 59.2284C34.7604 59.4883 34.934 59.712 35.1626 59.8673C35.3911 60.0226 35.663 60.1017 35.9392 60.0932C36.2154 60.0847 36.4818 59.9891 36.7004 59.82C43.0004 54.82 49.2104 49.57 53.4704 42.82C54.5731 40.7589 55.9157 38.8355 57.4704 37.09C58.8938 35.8161 60.4895 34.749 62.2104 33.92C72.7548 28.3241 83.8421 23.8175 95.3004 20.47C96.1326 20.1175 97.0659 20.0855 97.9204 20.38C98.9204 20.87 99.2604 22.14 99.4704 23.25C101.789 35.7099 102.772 48.3816 102.4 61.05C102.19 68.2 101.58 75.56 103.86 82.34C106 88.68 110.5 93.94 115.27 98.63C118.74 102.04 122.51 105.31 127.04 107.07C131.57 108.83 137.04 108.88 141.04 106.07L142.16 104.6Z" fill="#FFAF80"/>
<path d="M58.8397 52.3999C56.9124 54.6123 55.8801 57.4642 55.9448 60.3976C56.0096 63.3311 57.1667 66.1347 59.1897 68.2599C59.9634 69.0871 60.9661 69.665 62.0697 69.9199C64.6597 70.3699 67.2097 68.0699 69.7397 68.7399C73.0097 69.5999 74.1197 74.7399 77.4897 74.7399C79.6397 74.7399 81.0797 72.4699 83.0997 71.7399C87.1697 70.2399 90.8797 75.2099 95.2097 75.4499C95.9589 75.3999 96.7113 75.4674 97.4397 75.6499C98.7997 76.1699 99.2998 77.7899 99.6198 79.2099C100.16 81.5499 100.54 84.4099 98.7297 85.9799C97.9266 86.5334 97.0647 86.9962 96.1597 87.3599C93.9897 88.5299 92.6597 90.7699 91.0697 92.6599C89.1028 94.9733 86.6615 96.8368 83.9113 98.1239C81.161 99.411 78.1662 100.092 75.1298 100.12C70.0398 100.12 65.1298 98.3099 60.3998 96.4999C56.5198 95.0299 52.2897 93.2499 50.4797 89.4999C48.6697 85.7499 49.8697 81.2899 48.9697 77.2499C48.0697 73.2099 45.2497 69.8699 45.2197 65.8499C45.2197 62.5599 47.1298 59.4999 49.6498 57.3799C52.2781 55.3928 55.1819 53.7994 58.2698 52.6499L58.8397 52.3999Z" fill="#DC3545"/>
<path d="M68.1196 93.48C64.8096 94.77 61.5695 96.63 59.5395 99.55C57.5095 102.47 56.9696 106.62 58.9896 109.55C61.1596 112.71 65.8095 113.97 66.9395 117.63C68.0695 121.29 64.9395 124.84 62.1895 127.57C57.1295 132.57 52.2395 138.8 52.5395 145.91C52.8795 154.1 61.4096 160.91 69.4696 159.47C65.8996 158.76 63.9396 154.47 64.7596 150.88C65.5796 147.29 68.3995 144.58 71.4395 142.57C74.4795 140.56 77.8596 139.07 80.7396 136.83C85.0896 133.44 88.1296 128.18 88.1496 122.66C88.1696 117.14 84.8796 111.57 79.7396 109.56C77.7396 108.8 75.6896 108.56 73.7396 107.88C70.8088 106.845 68.2527 104.961 66.3969 102.467C64.5412 99.9739 63.4698 96.9845 63.3195 93.88L68.1196 93.48Z" fill="#DC3545"/>
<path d="M96.9902 52.05L97.8102 65.1601L100.73 56.2001L96.9902 52.05Z" fill="#EC795C"/>
<path d="M22.0903 61.64L32.0903 49.51C32.5903 48.91 31.7203 48.03 31.2203 48.64L21.2203 60.77C20.7203 61.38 21.5803 62.25 22.0903 61.64Z" fill="#EC795C"/>
<path d="M18.9997 57.3499C22.7197 53.1299 26.5997 49.0565 30.6397 45.1299C31.2097 44.5799 30.3397 43.7099 29.7697 44.2599C25.7697 48.1799 21.8897 52.2532 18.1297 56.4799C17.6097 57.0699 18.4797 57.9399 18.9997 57.3499Z" fill="#EC795C"/>
<path d="M19.9996 51.19C22.658 48.1295 25.6123 45.3393 28.8195 42.86C28.9337 42.744 28.9978 42.5877 28.9978 42.425C28.9978 42.2622 28.9337 42.1059 28.8195 41.99C28.7023 41.8781 28.5466 41.8157 28.3846 41.8157C28.2226 41.8157 28.0667 41.8781 27.9495 41.99C24.7423 44.4693 21.788 47.2595 19.1296 50.32C18.6196 50.91 19.4796 51.79 19.9996 51.19Z" fill="#EC795C"/>
<path d="M27.7504 40.2499C29.7397 43.7886 31.474 47.4645 32.9403 51.2499C33.2203 51.9799 34.4104 51.6699 34.1304 50.9299C32.6325 47.0446 30.8648 43.2687 28.8403 39.6299C28.7581 39.4894 28.6235 39.3872 28.466 39.346C28.3084 39.3047 28.1409 39.3277 28.0004 39.4099C27.8598 39.4921 27.7576 39.6268 27.7163 39.7844C27.6751 39.9419 27.6981 40.1094 27.7803 40.2499H27.7504Z" fill="#EC795C"/>
<path d="M22.0597 62.8801C21.9468 62.9973 21.8594 63.1366 21.8029 63.2892C21.7464 63.4418 21.7221 63.6045 21.7315 63.767C21.7409 63.9295 21.7837 64.0882 21.8574 64.2333C21.9311 64.3784 22.034 64.5067 22.1597 64.6101C22.4113 64.8407 22.709 65.0152 23.0331 65.122C23.3572 65.2289 23.7003 65.2658 24.0397 65.2301C25.6714 65.035 27.2074 64.3558 28.4497 63.2801C29.8194 62.1071 31.0995 60.8336 32.2797 59.4701C33.6997 57.9501 35.1197 56.4701 36.5297 54.9201L35.5297 54.1801C34.6054 55.7928 34.0617 57.5953 33.9397 59.4501C33.9426 59.5834 33.9878 59.7124 34.0686 59.8184C34.1495 59.9244 34.262 60.002 34.3898 60.0401L35.7097 60.5201C36.4497 60.8001 36.7697 59.6101 36.0297 59.3401L34.7197 58.8501L35.1697 59.4501C35.2813 57.8119 35.7672 56.2212 36.5897 54.8001C36.9297 54.2001 36.1097 53.5301 35.5897 54.0501C33.3897 56.4001 31.2597 58.8401 28.9697 61.0501C28.0425 62.0348 26.9534 62.8533 25.7498 63.4701C25.1866 63.7374 24.5806 63.9033 23.9597 63.9601C23.7136 63.9994 23.4615 63.9717 23.2298 63.8801C23.1198 63.8801 23.0197 63.7001 22.9097 63.6601C22.7997 63.6201 22.9897 63.5601 22.8497 63.7101C23.3897 63.1301 22.5198 62.2501 21.9798 62.8401L22.0597 62.8801Z" fill="#EC795C"/>
<path d="M52.5205 28.9101C53.5159 30.6843 54.2246 32.6046 54.6205 34.6001C54.6649 34.7575 54.7695 34.891 54.9119 34.9716C55.0542 35.0521 55.2227 35.0731 55.3805 35.0301C55.5343 34.9835 55.6645 34.8799 55.7444 34.7405C55.8243 34.6011 55.848 34.4364 55.8104 34.2801C55.3886 32.1749 54.636 30.1498 53.5805 28.2801C53.4982 28.1395 53.3636 28.0374 53.2061 27.9961C53.0485 27.9549 52.8811 27.9779 52.7405 28.0601C52.5999 28.1423 52.4978 28.277 52.4566 28.4345C52.4153 28.592 52.4383 28.7595 52.5205 28.9001V28.9101Z" fill="#EC795C"/>
<path d="M33.6505 62.7499C32.9313 63.5014 32.406 64.4168 32.1203 65.417C31.8345 66.4171 31.7968 67.4719 32.0105 68.4899C32.0549 68.6451 32.1581 68.7769 32.2981 68.8572C32.4382 68.9375 32.6041 68.96 32.7605 68.9199C32.9165 68.8733 33.0484 68.7682 33.1286 68.6265C33.2087 68.4848 33.2309 68.3176 33.1905 68.1599C33.0332 67.3519 33.072 66.5181 33.3034 65.7282C33.5348 64.9382 33.9522 64.2153 34.5205 63.6199C35.0705 63.0499 34.2005 62.1799 33.6505 62.7499Z" fill="#EC795C"/>
<path d="M30.7405 101.06C29.9734 102.429 29.7532 104.038 30.1243 105.563C30.4953 107.088 31.4301 108.416 32.7405 109.28C33.4105 109.71 34.0305 108.64 33.3605 108.22C32.3323 107.52 31.6018 106.463 31.3115 105.254C31.0212 104.044 31.1919 102.77 31.7904 101.68C31.8726 101.54 31.8956 101.372 31.8544 101.215C31.8131 101.057 31.711 100.922 31.5705 100.84C31.4299 100.758 31.2624 100.735 31.1049 100.776C30.9473 100.817 30.8127 100.92 30.7305 101.06H30.7405Z" fill="#EC795C"/>
<path d="M92.0998 225.52L93.7599 222.58C93.8379 222.438 93.8586 222.272 93.8176 222.116C93.7767 221.96 93.6772 221.825 93.5398 221.74C93.3978 221.664 93.2324 221.645 93.0768 221.686C92.9211 221.726 92.7865 221.824 92.6998 221.96L91.0398 224.9C90.9592 225.041 90.9371 225.208 90.9783 225.365C91.0194 225.522 91.1205 225.657 91.2599 225.74C91.4014 225.818 91.5674 225.839 91.7237 225.798C91.8801 225.757 92.0148 225.657 92.0998 225.52Z" fill="#EC795C"/>
<path d="M139.84 207.46C139.667 208.534 139.798 209.636 140.219 210.64C140.639 211.644 141.332 212.51 142.22 213.14C142.361 213.221 142.528 213.243 142.685 213.202C142.842 213.16 142.976 213.059 143.06 212.92C143.138 212.778 143.159 212.612 143.118 212.456C143.077 212.3 142.977 212.165 142.84 212.08C142.179 211.593 141.662 210.936 141.343 210.179C141.025 209.422 140.916 208.593 141.03 207.78C141.065 207.624 141.04 207.46 140.961 207.321C140.881 207.183 140.752 207.079 140.6 207.03C140.442 206.987 140.274 207.008 140.131 207.088C139.989 207.169 139.884 207.303 139.84 207.46Z" fill="#EC795C"/>
<path d="M101.59 50.77C101.63 57.0966 101.663 63.43 101.69 69.77C101.69 72.85 101.58 75.96 101.81 79.03C102.021 81.7574 102.867 84.3976 104.28 86.74C105.849 89.2343 107.709 91.5337 109.82 93.59C109.939 93.6827 110.088 93.7286 110.239 93.7192C110.39 93.7098 110.532 93.6457 110.639 93.5388C110.745 93.432 110.81 93.2898 110.819 93.1391C110.829 92.9883 110.783 92.8393 110.69 92.72C107.07 89.02 103.58 84.78 103.07 79.42C102.79 76.42 102.93 73.42 102.92 70.42V61.23C102.92 57.76 102.92 54.23 102.92 50.81C102.901 50.6604 102.828 50.5229 102.714 50.4232C102.601 50.3235 102.456 50.2686 102.305 50.2686C102.154 50.2686 102.008 50.3235 101.895 50.4232C101.782 50.5229 101.709 50.6604 101.69 50.81L101.59 50.77Z" fill="#EC795C"/>
<path d="M98.3502 21.6L105.23 13.47C105.74 12.87 104.88 11.99 104.37 12.6L97.4802 20.73C96.9702 21.33 97.8302 22.21 98.3502 21.6Z" fill="#EC795C"/>
<path d="M82.6096 42.13C83.0352 43.7166 83.1439 45.3714 82.9295 47C82.9295 47.081 82.9456 47.1611 82.9769 47.2358C83.0082 47.3105 83.0541 47.3782 83.1118 47.4349C83.1695 47.4917 83.2379 47.5364 83.3131 47.5665C83.3883 47.5965 83.4686 47.6113 83.5495 47.61C83.7097 47.605 83.862 47.5391 83.9753 47.4258C84.0886 47.3125 84.1545 47.1602 84.1595 47C84.3754 45.263 84.2531 43.5006 83.7995 41.81C83.7438 41.6681 83.6377 41.5517 83.5016 41.4831C83.3654 41.4145 83.2087 41.3984 83.0615 41.438C82.9143 41.4776 82.7868 41.5701 82.7035 41.6977C82.6201 41.8254 82.5867 41.9793 82.6096 42.13Z" fill="#EC795C"/>
<path d="M70.4296 50.2299C70.915 50.3376 71.3647 50.5678 71.7359 50.8987C72.107 51.2295 72.3871 51.65 72.5496 52.1199C72.7414 52.6022 72.8169 53.123 72.7697 53.6399C72.7192 54.1063 72.5468 54.5513 72.2697 54.9299C72.1578 55.0471 72.0953 55.2029 72.0953 55.3649C72.0953 55.5269 72.1578 55.6827 72.2697 55.7999C72.3856 55.9141 72.5418 55.9781 72.7046 55.9781C72.8674 55.9781 73.0237 55.9141 73.1397 55.7999C73.5753 55.241 73.8585 54.5787 73.9619 53.8777C74.0653 53.1766 73.9853 52.4608 73.7296 51.7999C73.5073 51.1238 73.1144 50.5165 72.5889 50.0366C72.0634 49.5566 71.423 49.2202 70.7296 49.0599C70.5734 49.0224 70.4086 49.046 70.2692 49.1259C70.1298 49.2059 70.0262 49.3361 69.9796 49.4899C69.9584 49.5674 69.9527 49.6483 69.9629 49.728C69.9731 49.8076 69.9989 49.8845 70.0388 49.9542C70.0788 50.0239 70.1321 50.085 70.1957 50.134C70.2593 50.1831 70.332 50.219 70.4096 50.2399L70.4296 50.2299Z" fill="#390E0C"/>
<path d="M63.0099 53.28C63.0093 52.5371 63.2917 51.8219 63.7999 51.28C64.0624 51.0239 64.4069 50.8685 64.7726 50.841C65.1384 50.8136 65.5021 50.9159 65.7999 51.13C66.6399 51.86 66.1599 53.2 65.8599 54.28C65.5435 55.4832 65.5489 56.7483 65.8753 57.9488C66.2017 59.1492 66.8378 60.2428 67.7199 61.12C65.9933 60.5156 64.5399 59.3132 63.6229 57.7303C62.7058 56.1474 62.3855 54.2886 62.7199 52.49L63.0099 53.28Z" fill="#DC3545"/>
<path d="M76.0802 70.7699C72.8802 72.3799 71.6702 77.0999 73.9002 79.8999C76.1302 82.6999 81.2602 82.3999 82.9002 79.2499C84.4902 76.2499 82.9001 72.6599 81.3101 69.6799L76.0802 70.7699Z" fill="#FFAF80"/>
<path d="M77.3805 77.1901C77.8408 76.6765 78.3425 76.2016 78.8805 75.7701L79.0804 75.6101L79.1904 75.5201L79.6105 75.2301C79.9005 75.0301 80.1905 74.8401 80.4905 74.6601C80.6298 74.5768 80.731 74.4421 80.7721 74.2851C80.8132 74.128 80.7911 73.9611 80.7104 73.8201C80.6254 73.6827 80.4907 73.5832 80.3344 73.5423C80.178 73.5013 80.012 73.522 79.8705 73.6001C78.6191 74.3396 77.4836 75.2595 76.5005 76.3301C76.3863 76.4461 76.3223 76.6023 76.3223 76.7651C76.3223 76.9279 76.3863 77.0841 76.5005 77.2001C76.6177 77.312 76.7734 77.3744 76.9354 77.3744C77.0974 77.3744 77.2533 77.312 77.3705 77.2001L77.3805 77.1901Z" fill="#EC795C"/>
<path d="M78.1996 76.6501C78.5996 77.0801 79.0095 77.5001 79.4195 77.9301C79.4756 77.9873 79.5426 78.0326 79.6164 78.0636C79.6903 78.0945 79.7695 78.1103 79.8496 78.1101C79.9312 78.1105 80.012 78.0948 80.0875 78.0639C80.163 78.0331 80.2316 77.9876 80.2895 77.9301C80.3477 77.8748 80.3937 77.808 80.4247 77.734C80.4557 77.66 80.471 77.5803 80.4696 77.5001C80.4611 77.3373 80.3976 77.1822 80.2895 77.0601L79.0596 75.7801C78.9451 75.6664 78.7909 75.6019 78.6296 75.6001C78.4683 75.6019 78.314 75.6664 78.1996 75.7801C78.1424 75.8361 78.0971 75.9031 78.0661 75.9769C78.0352 76.0508 78.0194 76.13 78.0196 76.2101C78.0181 76.2918 78.0332 76.373 78.0642 76.4487C78.0951 76.5243 78.1412 76.5929 78.1996 76.6501Z" fill="#EC795C"/>
<path d="M64.2995 94.5999C62.7895 96.1399 63.3995 98.5299 64.4195 100.17C65.6137 102.054 67.2649 103.605 69.2195 104.68C71.4861 105.738 73.9003 106.446 76.3796 106.78C78.6715 107.237 80.8846 108.025 82.9495 109.12C87.0107 111.204 90.2156 114.642 92.0096 118.84C92.8483 120.846 93.0812 123.053 92.6795 125.19C92.0897 127.448 90.8188 129.47 89.0395 130.98C87.1185 132.723 84.8679 134.063 82.4205 134.922C79.973 135.781 77.3783 136.14 74.7895 135.98C73.9995 135.93 74.0095 137.15 74.7895 137.21C79.4835 137.5 84.1352 136.173 87.9695 133.45C89.9127 132.125 91.5467 130.395 92.7596 128.38C93.8555 126.43 94.3037 124.181 94.0395 121.96C93.5095 117.38 90.6795 113.35 87.1595 110.51C85.3853 109.082 83.4195 107.911 81.3195 107.03C78.9899 106.174 76.5865 105.535 74.1396 105.12C71.474 104.667 69.0047 103.427 67.0495 101.56C66.1775 100.716 65.472 99.7148 64.9695 98.6099C64.6994 98.1292 64.5745 97.5805 64.61 97.0302C64.6455 96.48 64.8399 95.9519 65.1695 95.5099C65.7195 94.9499 64.8495 94.0799 64.2995 94.6399V94.5999Z" fill="#DC3545"/>
<path d="M59.3102 91.66C57.0385 91.6607 54.8216 90.9625 52.9602 89.66C52.0374 89.0192 51.2541 88.1978 50.6576 87.2456C50.0612 86.2934 49.6641 85.2301 49.4903 84.12C49.0503 81.47 49.4403 78.7 48.3503 76.18C47.3503 73.96 45.2402 72.48 44.4202 70.18C43.3202 67.12 45.2003 63.91 46.7403 61.36C46.8225 61.2195 46.8455 61.052 46.8042 60.8945C46.763 60.7369 46.6609 60.6023 46.5203 60.52C46.3797 60.4378 46.2123 60.4148 46.0547 60.4561C45.8972 60.4973 45.7624 60.5995 45.6802 60.74C44.2002 63.19 42.5902 66.03 42.9102 69C43.0763 70.3364 43.5978 71.6037 44.4202 72.67C45.1902 73.67 46.1002 74.67 46.7802 75.78C48.2702 78.23 47.8703 81.2 48.2303 83.92C48.5202 86.4153 49.7856 88.6946 51.7503 90.26C53.9077 91.9483 56.5708 92.8607 59.3102 92.85C59.4598 92.8309 59.5974 92.7579 59.6971 92.6447C59.7967 92.5315 59.8517 92.3859 59.8517 92.235C59.8517 92.0842 59.7967 91.9386 59.6971 91.8253C59.5974 91.7121 59.4598 91.6392 59.3102 91.62V91.66Z" fill="#DC3545"/>
<path d="M129.35 75.2001C129.83 78.5748 131.552 81.6488 134.18 83.8201C134.294 83.9337 134.449 83.9974 134.61 83.9974C134.771 83.9974 134.925 83.9337 135.04 83.8201C135.154 83.7041 135.218 83.5478 135.218 83.3851C135.218 83.2223 135.154 83.0661 135.04 82.9501C132.574 80.9197 130.963 78.0347 130.53 74.8701C130.485 74.7149 130.382 74.5831 130.242 74.5028C130.102 74.4225 129.936 74.4 129.78 74.4401C129.624 74.4867 129.492 74.5918 129.412 74.7335C129.332 74.8752 129.309 75.0424 129.35 75.2001Z" fill="#EC795C"/>
<path d="M149.84 202.35C154.537 197.882 159.747 193.985 165.36 190.74C170.945 187.509 176.884 184.932 183.06 183.06C186.552 182.009 190.11 181.19 193.71 180.61C194.49 180.48 194.16 179.3 193.38 179.42C186.902 180.473 180.571 182.289 174.52 184.83C168.506 187.356 162.802 190.564 157.52 194.39C154.529 196.565 151.682 198.934 149 201.48C148.42 202.03 149.29 202.9 149.87 202.35H149.84Z" fill="#19237C"/>
<path d="M180.91 179.28L178.8 182.61C178.759 182.68 178.732 182.756 178.721 182.836C178.71 182.916 178.714 182.998 178.735 183.076C178.755 183.154 178.791 183.228 178.84 183.292C178.889 183.356 178.95 183.41 179.02 183.45C179.162 183.528 179.328 183.549 179.484 183.508C179.641 183.467 179.775 183.367 179.86 183.23L181.97 179.9C182.051 179.759 182.073 179.592 182.032 179.435C181.991 179.278 181.89 179.143 181.75 179.06C181.609 178.982 181.443 178.961 181.286 179.002C181.13 179.043 180.995 179.143 180.91 179.28Z" fill="#19237C"/>
<path d="M119.05 150.25C123.763 153.87 128.573 157.347 133.48 160.68C137.869 163.853 142.558 166.589 147.48 168.85C150.26 170.068 153.188 170.912 156.19 171.36C156.345 171.398 156.508 171.376 156.648 171.298C156.787 171.22 156.891 171.092 156.94 170.94C156.983 170.782 156.962 170.614 156.881 170.471C156.801 170.329 156.667 170.224 156.51 170.18C151.244 169.277 146.205 167.351 141.68 164.51C136.82 161.65 132.18 158.38 127.6 155.09C124.933 153.17 122.287 151.203 119.66 149.19C119.03 148.71 118.42 149.78 119.04 150.25H119.05Z" fill="#19237C"/>
<path d="M78.5003 175.95C80.0914 179.999 81.199 184.221 81.8002 188.53C81.9102 189.31 83.0902 188.98 82.9802 188.2C82.3765 183.893 81.2723 179.671 79.6902 175.62C79.4002 174.89 78.2103 175.21 78.5003 175.95Z" fill="#19237C"/>
<path d="M80.65 175.22L86.4199 183.22C86.505 183.357 86.6397 183.457 86.796 183.498C86.9523 183.539 87.1185 183.518 87.26 183.44C87.33 183.4 87.3913 183.346 87.4403 183.282C87.4893 183.217 87.525 183.144 87.5455 183.066C87.566 182.988 87.5707 182.906 87.5594 182.826C87.5482 182.746 87.5212 182.67 87.48 182.6L81.7099 174.6C81.6232 174.465 81.4887 174.367 81.333 174.326C81.1773 174.285 81.012 174.304 80.87 174.38C80.8 174.42 80.7387 174.474 80.6897 174.538C80.6407 174.603 80.6048 174.676 80.5843 174.754C80.5639 174.832 80.5592 174.914 80.5704 174.994C80.5817 175.074 80.6088 175.151 80.65 175.22Z" fill="#19237C"/>
<path d="M33.6301 185.94L26.6301 199.41C26.2701 200.11 27.3301 200.73 27.7001 200.03C30.0068 195.537 32.3235 191.047 34.6502 186.56C35.0102 185.86 33.9501 185.24 33.5901 185.94H33.6301Z" fill="#19237C"/>
<path d="M35.3095 187.2C34.0833 189.807 33.167 192.549 32.5796 195.37C32.4196 196.14 33.5796 196.47 33.7696 195.69C34.324 192.974 35.1966 190.332 36.3696 187.82C36.6996 187.11 35.6395 186.49 35.3095 187.2Z" fill="#19237C"/>
<path d="M21.2401 128.13C25.9805 128.437 30.7338 128.493 35.4801 128.3C36.2601 128.3 36.2701 127.04 35.4801 127.07C30.7338 127.268 25.9803 127.212 21.2401 126.9C20.4501 126.85 20.4601 128.08 21.2401 128.13Z" fill="#19237C"/>
<path d="M120.51 136.56C131.677 133.267 142.717 129.56 153.63 125.44C156.724 124.267 159.804 123.06 162.87 121.82C163.6 121.53 163.28 120.34 162.55 120.64C151.743 124.993 140.787 128.937 129.68 132.47C126.52 133.47 123.353 134.437 120.18 135.37C120.035 135.425 119.916 135.531 119.846 135.669C119.776 135.807 119.761 135.966 119.802 136.116C119.843 136.265 119.939 136.393 120.07 136.475C120.201 136.557 120.358 136.588 120.51 136.56Z" fill="#EC795C"/>
<path d="M121.66 107.9C124.806 109.87 128.351 111.113 132.037 111.538C135.724 111.964 139.459 111.561 142.97 110.36C144.959 109.687 146.847 108.745 148.58 107.56C149.23 107.12 148.58 106.06 147.96 106.5C145.005 108.462 141.648 109.739 138.136 110.235C134.623 110.732 131.044 110.436 127.66 109.37C125.762 108.771 123.952 107.92 122.28 106.84C121.61 106.41 120.99 107.48 121.66 107.9Z" fill="#EC795C"/>
</g>
<defs>
<clipPath id="clip0_515_8863">
<rect width="220.68" height="228.56" fill="white"/>
</clipPath>
</defs>
</svg>
