<svg width="375" height="220" viewBox="0 0 375 220" fill="none" xmlns="http://www.w3.org/2000/svg">
<path d="M78.8809 166.301C78.0634 169.756 77.4584 173.258 77.0693 176.786C76.9195 177.575 76.9487 178.387 77.1549 179.163C77.5215 179.995 78.0793 180.73 78.783 181.306L84.7198 186.941C88.1105 190.162 91.9787 193.592 96.6547 193.616C98.8335 193.616 101.894 193.494 102.224 195.649C102.481 197.364 100.413 198.467 98.6989 198.748C95.6803 199.251 92.5843 198.994 89.6896 198.001C86.813 196.997 84.2056 195.306 81.2923 194.425C76.3225 192.93 70.9733 193.959 65.7832 193.751C60.5931 193.543 54.7664 191.301 53.1506 186.402C52.1346 183.205 53.1506 179.751 54.3135 176.603C56.068 171.532 57.8879 166.485 59.773 161.463C59.9084 160.954 60.1942 160.497 60.5931 160.153C61.1104 159.877 61.7064 159.786 62.2823 159.895C66.44 160.261 70.5449 161.082 74.5232 162.345C77.0325 163.141 80.0071 165.003 79.4195 167.563L78.8809 166.301Z" fill="#E89369"/>
<path d="M159.817 55.6705C151.894 83.0795 136.154 107.581 114.526 126.174C110.658 129.494 106.594 132.605 103.019 136.243C94.1203 145.295 88.6364 157.066 81.4755 167.526C81.1568 168.109 80.6707 168.583 80.08 168.886C79.4016 169.118 78.6653 169.118 77.9869 168.886C71.8226 167.272 66.124 164.23 61.3516 160.005C76.8118 138.252 92.2964 116.473 105.725 93.409C112.628 81.5644 118.969 69.4014 126.093 57.7038C129.215 52.5961 132.581 47.4516 137.392 43.8995C142.202 40.3473 148.776 38.6202 154.272 40.9842C159.768 43.3483 163.085 50.624 160.025 55.7685L159.817 55.6705Z" fill="#FE704C"/>
<path d="M309.891 192.698C316.617 194.18 323.472 195 330.357 195.147C333.222 195.147 336.478 195.331 338.277 197.597C335.829 199.263 332.5 197.377 329.598 197.952C328.986 198.075 328.264 198.516 328.374 199.177C328.496 199.523 328.746 199.808 329.072 199.973L332.181 202.031C330.443 203.048 328.252 202.46 326.33 201.835L314.273 197.952C313.76 197.82 313.281 197.582 312.865 197.254C312.379 196.664 312.002 195.992 311.751 195.27C311.409 194.584 310.686 193.935 309.952 194.167L309.891 192.698Z" fill="#E89369"/>
<path d="M47.6419 165.603C45.5214 176.038 41.3163 185.937 35.2787 194.706C32.8305 198.381 29.8559 202.84 31.8512 206.759C32.5252 207.882 33.4653 208.821 34.5883 209.494C35.7112 210.167 36.9825 210.553 38.2899 210.618C40.9023 210.721 43.5175 210.498 46.0751 209.956C54.1356 208.788 62.3473 209.225 70.2385 211.242C71.2505 211.61 72.3471 211.678 73.3967 211.438C74.4005 211.071 75.1227 209.748 74.4616 208.903C75.4451 209.993 76.7627 210.725 78.2073 210.985C79.6518 211.083 81.2553 209.76 80.937 208.4C81.2553 208.866 81.691 209.239 82.2 209.482C82.709 209.725 83.2731 209.828 83.835 209.782C84.397 209.736 84.9367 209.542 85.3995 209.22C85.8623 208.898 86.2316 208.459 86.4699 207.947C86.7526 208.235 87.1103 208.438 87.5024 208.532C87.8946 208.627 88.3054 208.609 88.688 208.482C89.0707 208.354 89.4099 208.122 89.6669 207.81C89.924 207.499 90.0887 207.122 90.1422 206.722C92.4802 206.967 95.0385 204.273 93.5451 202.411C92.0517 200.549 89.4811 202.092 87.339 202.644C83.4219 203.66 79.4804 201.333 76.1386 198.969C71.7156 195.915 67.3987 192.73 63.1878 189.415C62.2237 188.736 61.3936 187.885 60.7396 186.904C59.2585 184.332 60.4458 181.098 61.6577 178.33L63.9957 168.249L47.6419 165.603Z" fill="#FFAF80"/>
<path d="M209.417 126.395C210.801 129.665 212.172 132.948 213.555 136.194L205.5 138.644C204.154 139.06 202.624 139.587 203.052 141.939C203.11 142.271 203.205 142.595 203.334 142.906L208.597 156.539L202.869 158.842C202.722 158.897 202.598 158.999 202.514 159.131C202.43 159.263 202.391 159.419 202.404 159.575C202.416 159.732 202.479 159.88 202.583 159.997C202.686 160.114 202.825 160.195 202.979 160.226C205.162 160.802 207.139 161.983 208.683 163.631C210.848 166.148 212.57 169.014 213.775 172.107C216.309 177.717 219.602 184.136 225.661 185.226C229.174 185.85 232.699 184.43 235.943 182.948C241.019 180.628 245.989 178.089 250.853 175.329C252.798 174.425 254.482 173.043 255.749 171.311C257.512 168.42 256.777 164.721 255.945 161.426C253.015 149.847 249.665 138.387 245.895 127.044C245.417 125.24 244.584 123.55 243.447 122.071C240.852 119.119 236.384 118.837 232.43 119.18C224.006 119.94 215.848 122.528 208.524 126.762L209.417 126.395Z" fill="#FFAF80"/>
<path d="M216.125 179.751C217.092 183.695 221.278 186.389 225.538 186.99C229.798 187.59 234.107 186.5 238.183 185.189C244.303 183.229 250.24 180.669 254.892 176.505C259.543 172.34 262.689 166.363 261.991 160.361C261.526 156.319 259.409 152.62 257.242 149.104C253.268 142.645 248.971 136.374 244.352 130.29C239.884 134.283 235.037 139.183 235.784 144.989C236.261 148.945 239.456 152.62 238.575 156.527C237.718 160.655 232.711 163.484 232.797 167.686C233.012 168.865 233.094 170.065 233.042 171.262C232.809 172.487 231.328 173.516 230.288 172.818C230.288 170.772 227.093 169.829 225.391 171.091C224.619 171.78 224.073 172.687 223.824 173.692C223.575 174.697 223.635 175.754 223.996 176.725L220.936 173.246L213.469 176.149L216.125 179.751Z" fill="#212529"/>
<path d="M254.524 173.981C254.78 175.562 255.486 177.035 256.556 178.225C257.626 179.416 259.016 180.273 260.559 180.694C263.67 181.486 266.955 181.236 269.911 179.983C274.147 178.379 278.259 174.9 278.345 170.38C278.419 166.118 274.954 162.664 271.478 160.202C269.939 159.007 268.197 158.098 266.337 157.519C264.187 157.011 261.929 157.245 259.929 158.184C257.929 159.122 256.305 160.71 255.32 162.688L254.524 173.981Z" fill="#212529"/>
<path d="M163.282 59.6881C165.926 66.033 164.506 73.2353 165.228 80.0701C166.269 90.6775 172.169 100.097 177.897 109.075C183.357 117.649 189.453 126.689 198.927 130.278C205.354 132.727 212.527 132.25 219.284 130.976C224.058 130.082 229.236 128.845 233.593 130.976C236.237 132.299 238.147 134.651 239.946 137.1C247.544 146.997 254.794 157.147 261.698 167.551C266.386 174.63 271.026 181.931 277.611 187.271C288.053 195.723 302.24 198.295 312.889 206.477C315.925 208.817 318.667 211.61 322.07 213.361C325.987 215.382 330.504 215.811 334.899 216.191C341.753 216.693 350.714 216.362 357.862 216.117C358.005 216.115 358.143 216.069 358.257 215.983C358.371 215.898 358.456 215.779 358.498 215.643C358.54 215.507 358.538 215.361 358.492 215.226C358.446 215.091 358.358 214.974 358.242 214.892C355.767 213.465 352.906 212.857 350.065 213.153C354.668 214.306 359.445 214.597 364.154 214.01C364.284 213.982 364.403 213.916 364.495 213.82C364.588 213.724 364.65 213.603 364.673 213.471C364.697 213.34 364.681 213.205 364.628 213.083C364.575 212.961 364.486 212.857 364.375 212.785C361.99 211.576 359.314 211.058 356.651 211.291C359.1 212.069 361.685 212.328 364.24 212.05C364.401 212.029 364.549 211.949 364.656 211.826C364.764 211.703 364.823 211.546 364.823 211.383C364.823 211.22 364.764 211.063 364.656 210.94C364.549 210.817 364.401 210.737 364.24 210.715L336.196 205.742C333.022 205.323 329.921 204.47 326.979 203.207C323.671 201.363 320.69 198.988 318.153 196.176L294.467 172.634C290.55 168.751 286.535 164.795 281.602 162.333C278.64 160.863 262.763 128.306 240.375 99.2761C220.361 73.3333 194.141 51.7632 183.149 32.7041C178.233 34.5982 173.844 37.6446 170.349 41.5876C166.853 45.5305 164.354 50.2549 163.062 55.3643L163.282 59.6881Z" fill="#FFAF80"/>
<path d="M164.714 67.2824C163.587 61.2805 161.041 56.9322 157.296 54.2987C156.247 53.6863 155.048 53.38 153.834 53.4147C152.62 53.4493 151.441 53.8234 150.429 54.4947C148.433 55.8681 146.762 57.6616 145.532 59.7494C138.873 69.5484 134.197 80.5723 129.619 91.4737C127.416 96.6794 125.2 101.959 121.736 106.417C118.59 110.472 114.538 113.705 110.597 116.976C91.6235 132.691 73.6294 150.892 64.5467 173.81C59.3933 171.666 46.1855 167.404 46.3691 166.461C51.192 142.771 66.236 117.466 86.5436 104.396C89.5915 102.424 92.8476 100.562 94.9653 97.6103C96.2965 95.5588 97.2962 93.3101 97.9275 90.947C101.752 78.9307 104.401 66.5707 105.835 54.0415C106.741 46.239 107.169 38.3141 109.397 30.7688C111.845 22.4807 116.361 14.9524 122.519 8.89256C127.514 3.99305 133.952 0.012207 140.954 0.012207C149.804 0.012207 157.308 6.22233 163.808 12.261C170.308 18.2996 177.505 31.9937 186.331 32.8389C185.866 38.853 183.577 37.4934 180.015 42.3684C177.04 46.435 173.148 49.7177 169.928 53.6618C166.709 57.6059 164.714 67.2824 164.714 67.2824Z" fill="#F98A73"/>
<path d="M195.01 129.322C195.487 129.057 195.874 128.655 196.122 128.169C196.371 127.683 196.469 127.133 196.405 126.591C195.781 121.691 200.751 116.792 205.916 116.486C211.682 116.081 217.007 119.425 221.609 122.953C226.212 126.481 230.814 130.425 236.482 131.527C231.341 127.693 226.15 123.725 222.49 118.445C218.83 113.166 216.909 106.307 218.99 100.232C221.071 94.1561 227.938 89.6486 234.058 91.5717C226.34 81.6037 217.864 72.2465 208.707 63.5833C196.332 74.3864 182.504 83.3994 167.627 90.359C172.278 106.135 180.627 121.336 195.01 129.286V129.322Z" fill="#0D6EFD"/>
<path d="M86.593 205.436C86.7475 205.418 86.9036 205.418 87.0582 205.436H87.1805C87.3274 205.436 87.0336 205.436 87.1805 205.436H87.3887C87.4693 205.449 87.5476 205.474 87.6213 205.51H87.7191C87.8171 205.51 87.7191 205.51 87.7191 205.51C87.803 205.531 87.882 205.569 87.9517 205.62L88.1476 205.742H88.2333C88.2333 205.742 88.368 205.804 88.2333 205.742C88.2986 205.781 88.3565 205.831 88.4046 205.889L88.5638 206.049L88.6495 206.147C88.6495 206.147 88.7351 206.257 88.6495 206.147C88.6742 206.176 88.6948 206.209 88.7106 206.245L88.8331 206.453V206.539C88.9065 206.673 88.8331 206.416 88.8331 206.539L88.9065 206.771C88.9496 206.93 89.0535 207.065 89.1955 207.148C89.3376 207.23 89.5064 207.253 89.6655 207.212C89.8227 207.164 89.9551 207.057 90.0349 206.913C90.1148 206.769 90.1359 206.6 90.0939 206.441C89.8725 205.662 89.3814 204.988 88.7085 204.539C88.0355 204.09 87.2248 203.896 86.4216 203.991C86.2598 203.998 86.1049 204.058 85.981 204.162C85.8715 204.283 85.8104 204.44 85.8096 204.603C85.8096 204.909 86.0789 205.265 86.4216 205.228L86.593 205.436Z" fill="#EC795C"/>
<path d="M83.2144 206.587H83.447C83.5205 206.587 83.3124 206.587 83.447 206.587H83.5695C83.7153 206.611 83.8587 206.648 83.9979 206.698H84.0958C84.2427 206.698 83.9734 206.636 84.0958 206.698L84.2794 206.783C84.4183 206.858 84.5532 206.94 84.6834 207.028L84.8548 207.188L85.0139 207.347C85.0623 207.397 85.1073 207.45 85.1485 207.506C85.1485 207.506 85.1485 207.433 85.1485 207.506L85.2097 207.592L85.3199 207.788C85.3598 207.849 85.3926 207.915 85.4178 207.984C85.4301 208.024 85.4301 208.066 85.4178 208.106C85.4661 208.264 85.5734 208.396 85.7172 208.476C85.8609 208.556 86.03 208.577 86.189 208.535C86.3452 208.489 86.4775 208.384 86.5575 208.243C86.6376 208.101 86.6591 207.933 86.6174 207.776C86.3515 207.044 85.8745 206.408 85.2469 205.948C84.6193 205.488 83.8694 205.224 83.0921 205.191C82.9286 205.191 82.7717 205.255 82.6549 205.37C82.5382 205.484 82.471 205.64 82.4678 205.804C82.4738 205.967 82.5415 206.123 82.6573 206.239C82.7731 206.354 82.9284 206.422 83.0921 206.428L83.2144 206.587Z" fill="#EC795C"/>
<path d="M78.8437 207.825C78.9661 207.852 79.0852 207.894 79.1988 207.947H79.2722L79.4436 208.033L79.6027 208.143H79.6884C79.6884 208.143 79.7863 208.241 79.6884 208.143L79.9699 208.388L80.0923 208.535V208.596C80.1658 208.694 79.9944 208.474 80.0923 208.596C80.1903 208.719 80.227 208.805 80.2882 208.903L80.3738 209.074V209.148C80.2882 208.988 80.3738 209.074 80.3738 209.148C80.4219 209.272 80.4629 209.398 80.4963 209.527C80.542 209.684 80.6469 209.816 80.7886 209.896C80.9304 209.976 81.0978 209.998 81.2552 209.956C81.4098 209.908 81.5401 209.802 81.6197 209.661C81.6993 209.52 81.7221 209.354 81.6836 209.196C81.5359 208.591 81.2322 208.035 80.8026 207.583C80.373 207.132 79.8326 206.801 79.2354 206.624C79.075 206.586 78.9059 206.61 78.7627 206.692C78.6194 206.774 78.5127 206.907 78.4643 207.065C78.4231 207.224 78.4463 207.393 78.5287 207.535C78.6112 207.678 78.7465 207.782 78.905 207.825H78.8437Z" fill="#EC795C"/>
<path d="M74.2413 208.988H74.0943H74.2779H74.1188H74.3147H74.1556H74.3759H74.229C74.3172 209.026 74.3997 209.075 74.4738 209.135L74.3514 209.037C74.4296 209.102 74.4995 209.176 74.5595 209.258L74.4616 209.135C74.5245 209.208 74.5742 209.291 74.6085 209.38V209.233C74.6151 209.307 74.6151 209.381 74.6085 209.454V209.282C74.6208 209.355 74.6208 209.43 74.6085 209.503V209.344C74.614 209.405 74.614 209.466 74.6085 209.527V209.38V209.442C74.5544 209.596 74.5544 209.765 74.6085 209.919C74.6559 210.075 74.761 210.206 74.9022 210.287C74.972 210.332 75.0512 210.362 75.1339 210.372C75.2166 210.383 75.3006 210.375 75.3797 210.348C75.533 210.304 75.6641 210.203 75.7469 210.066C75.8735 209.844 75.9401 209.593 75.9401 209.337C75.9401 209.082 75.8735 208.831 75.7469 208.609C75.6075 208.394 75.4289 208.207 75.2205 208.058C75.1554 208.01 75.0856 207.969 75.0124 207.935C74.9001 207.876 74.7809 207.83 74.6574 207.8C74.5234 207.782 74.3874 207.782 74.2534 207.8C74.1641 207.789 74.0736 207.789 73.9842 207.8L73.7148 207.898C73.5758 207.984 73.475 208.12 73.4333 208.278C73.4006 208.353 73.3838 208.435 73.3838 208.517C73.3838 208.599 73.4006 208.68 73.4333 208.756C73.517 208.892 73.6477 208.992 73.8005 209.037H73.9597C74.0711 209.035 74.1804 209.006 74.2779 208.952L74.2413 208.988Z" fill="#EC795C"/>
<path d="M51.5833 185.997C52.2785 186.978 52.5732 188.187 52.4071 189.378C52.241 190.569 51.6266 191.651 50.6897 192.404C50.5768 192.52 50.5137 192.676 50.5137 192.838C50.5137 193.001 50.5768 193.157 50.6897 193.273C50.8096 193.384 50.967 193.446 51.1304 193.446C51.2938 193.446 51.4512 193.384 51.5711 193.273C52.7021 192.328 53.4404 190.995 53.6419 189.534C53.8433 188.073 53.4934 186.589 52.6605 185.373C52.5743 185.235 52.4389 185.136 52.2819 185.095C52.1249 185.054 51.9583 185.074 51.8159 185.152C51.674 185.234 51.5701 185.369 51.5265 185.527C51.483 185.685 51.5035 185.854 51.5833 185.997Z" fill="#EC795C"/>
<path d="M97.1688 195.502L97.2789 195.404H97.3402L97.6217 195.245C97.7441 195.245 97.5238 195.245 97.6217 195.245H97.7686C97.8633 195.209 97.9619 195.184 98.0623 195.172C98.0623 195.172 98.2092 195.172 98.0623 195.172H98.6989H98.7968H99.1029L99.3966 195.27C99.5313 195.27 99.3109 195.27 99.3966 195.27L99.5313 195.331L99.8128 195.502H99.8985L99.9964 195.576L100.204 195.796C100.204 195.796 100.327 195.943 100.204 195.796C100.226 195.842 100.255 195.883 100.29 195.919L100.437 196.188C100.437 196.286 100.437 196.103 100.437 196.188C100.442 196.245 100.442 196.303 100.437 196.36C100.485 196.517 100.593 196.65 100.736 196.729C100.88 196.809 101.049 196.831 101.208 196.788C101.363 196.74 101.493 196.635 101.573 196.494C101.652 196.353 101.675 196.186 101.637 196.029C101.45 195.496 101.137 195.017 100.724 194.632C100.312 194.247 99.8119 193.968 99.268 193.819C98.724 193.67 98.1519 193.655 97.6008 193.775C97.0498 193.895 96.5361 194.148 96.1038 194.51C95.9909 194.627 95.9277 194.783 95.9277 194.945C95.9277 195.107 95.9909 195.263 96.1038 195.38C96.2224 195.494 96.3802 195.557 96.5445 195.557C96.7087 195.557 96.8666 195.494 96.9851 195.38L97.1688 195.502Z" fill="#EC795C"/>
<path d="M70.459 176.223C70.7978 177.026 70.9411 177.897 70.8773 178.766C70.8134 179.635 70.5442 180.476 70.0918 181.221C69.6756 181.894 70.7406 182.519 71.1568 181.845C71.6994 180.961 72.0275 179.962 72.1147 178.928C72.2018 177.895 72.0456 176.855 71.6586 175.892C71.6055 175.738 71.4979 175.608 71.356 175.527C71.2141 175.445 71.0476 175.419 70.8874 175.451C70.7319 175.502 70.6015 175.61 70.522 175.753C70.4426 175.896 70.4201 176.064 70.459 176.223Z" fill="#EC795C"/>
<path d="M213.543 136.219L224.755 131.466L212.539 133.475L213.543 136.219Z" fill="#EC795C"/>
<path d="M209.564 148.676L213.555 147.561C213.709 147.513 213.84 147.407 213.919 147.266C213.999 147.125 214.022 146.959 213.983 146.802C213.938 146.645 213.833 146.513 213.691 146.433C213.549 146.353 213.382 146.331 213.224 146.373L209.234 147.475C209.077 147.524 208.944 147.631 208.864 147.775C208.784 147.919 208.763 148.088 208.805 148.247C208.851 148.403 208.956 148.536 209.098 148.616C209.239 148.696 209.407 148.717 209.564 148.676Z" fill="#EC795C"/>
<path d="M217.472 162.737C217.393 162.13 217.524 161.513 217.842 160.99C218.16 160.467 218.647 160.068 219.222 159.859C219.798 159.696 220.411 159.728 220.966 159.949C221.522 160.171 221.988 160.569 222.295 161.083C222.377 161.225 222.513 161.327 222.671 161.369C222.83 161.41 222.998 161.387 223.139 161.304C223.28 161.221 223.383 161.085 223.424 160.927C223.466 160.768 223.442 160.6 223.36 160.459C222.915 159.711 222.236 159.131 221.428 158.81C220.619 158.489 219.728 158.444 218.892 158.683C218.056 158.963 217.34 159.517 216.858 160.254C216.376 160.992 216.157 161.871 216.235 162.749C216.238 162.912 216.303 163.067 216.417 163.183C216.531 163.3 216.685 163.368 216.847 163.374C217.013 163.374 217.172 163.308 217.289 163.191C217.406 163.074 217.472 162.915 217.472 162.749V162.737Z" fill="#381F0A"/>
<path d="M218.279 167.208C218.285 167.702 218.48 168.176 218.824 168.531C219.167 168.887 219.634 169.097 220.128 169.119C221.127 169.11 222.096 168.77 222.882 168.151C224.077 167.332 225.145 166.342 226.052 165.211C224.089 165.919 222.019 166.284 219.932 166.289C219.659 166.246 219.38 166.261 219.114 166.335C218.848 166.409 218.601 166.54 218.389 166.718L218.279 167.208Z" fill="#92563A"/>
<path d="M231.035 163.46C233.255 165.238 235.631 166.812 238.135 168.163C238.845 168.543 239.469 167.477 238.759 167.098C236.346 165.801 234.056 164.288 231.916 162.578C231.796 162.467 231.639 162.405 231.476 162.405C231.312 162.405 231.155 162.467 231.035 162.578C230.924 162.698 230.862 162.855 230.862 163.019C230.862 163.182 230.924 163.34 231.035 163.46Z" fill="#29319F"/>
<path d="M233.262 160.606L239.97 164.28C240.668 164.66 241.292 163.594 240.594 163.202L233.886 159.528C233.189 159.148 232.564 160.214 233.262 160.593V160.606Z" fill="#29319F"/>
<path d="M344.421 213.851C348.961 214.365 353.525 214.635 358.094 214.66C358.236 214.631 358.363 214.555 358.454 214.443C358.546 214.331 358.596 214.192 358.596 214.047C358.596 213.903 358.546 213.763 358.454 213.651C358.363 213.54 358.236 213.463 358.094 213.435C353.526 213.398 348.962 213.128 344.421 212.626C343.626 212.541 343.638 213.778 344.421 213.851Z" fill="#EC795C"/>
<path d="M347.102 210.96C352.529 211.156 357.935 211.593 363.321 212.271C364.105 212.369 364.093 211.132 363.321 211.046C357.935 210.377 352.529 209.94 347.102 209.736C346.294 209.736 346.307 210.96 347.102 210.96Z" fill="#EC795C"/>
<path d="M347.188 208.168C345.823 210.388 344.254 212.475 342.5 214.402C341.961 214.99 342.83 215.872 343.369 215.284C345.204 213.281 346.843 211.107 348.265 208.792C348.681 208.106 347.616 207.494 347.2 208.168H347.188Z" fill="#EC795C"/>
<path d="M322.547 197.928C324.877 198.493 327.262 198.797 329.659 198.834C329.801 198.806 329.928 198.729 330.019 198.618C330.111 198.506 330.16 198.366 330.16 198.222C330.16 198.078 330.111 197.938 330.019 197.826C329.928 197.714 329.801 197.638 329.659 197.609C327.374 197.58 325.1 197.296 322.878 196.764C322.107 196.568 321.776 197.769 322.547 197.989V197.928Z" fill="#EC795C"/>
<path d="M274.991 166.265C275.608 166.758 276.107 167.382 276.454 168.091C276.802 168.801 276.987 169.578 276.999 170.368C277.027 170.509 277.104 170.637 277.215 170.728C277.327 170.82 277.467 170.87 277.611 170.87C277.755 170.87 277.895 170.82 278.006 170.728C278.118 170.637 278.194 170.509 278.223 170.368C278.205 169.364 277.96 168.378 277.507 167.482C277.053 166.587 276.402 165.806 275.603 165.199C275.462 165.118 275.294 165.096 275.136 165.137C274.978 165.178 274.843 165.28 274.759 165.419C274.681 165.562 274.66 165.729 274.701 165.886C274.742 166.043 274.842 166.178 274.979 166.265H274.991Z" fill="#EC795C"/>
<path d="M168.619 94.8789C183.585 86.2721 198.229 77.1427 212.551 67.4907L208.01 62.7749C194.85 72.517 181.084 81.4113 166.795 89.4037C167.657 90.9869 168.256 92.6995 168.57 94.4747L168.619 94.8789Z" fill="#29319F"/>
<path d="M213.456 105.719C212.93 102.387 214.472 99.1047 216.259 96.3855C217.843 93.8724 219.926 91.7126 222.38 90.0406C223.743 89.1296 225.249 88.4547 226.836 88.0441C226.998 88.0018 227.137 87.8968 227.222 87.7521C227.307 87.6074 227.331 87.4348 227.288 87.2724C227.246 87.11 227.141 86.971 226.997 86.886C226.852 86.801 226.68 86.777 226.517 86.8192C223.451 87.6594 220.674 89.3243 218.487 91.633C216.09 94.0199 214.218 96.882 212.991 100.036C212.247 101.935 212.011 103.995 212.306 106.013C212.428 106.797 213.615 106.466 213.53 105.682L213.456 105.719Z" fill="#29319F"/>
<path d="M179.011 98.1983C180.529 104.116 181.629 110.132 182.304 116.204C182.389 116.988 183.638 117 183.528 116.204C182.846 110.008 181.726 103.868 180.174 97.8308C180.13 97.6684 180.023 97.53 179.878 97.4462C179.732 97.3623 179.559 97.3399 179.396 97.3838C179.234 97.4276 179.096 97.5342 179.012 97.68C178.928 97.8259 178.906 97.9991 178.95 98.1615L179.011 98.1983Z" fill="#29319F"/>
<path d="M184.605 102.657C185.087 106.193 185.687 109.708 186.405 113.203C186.564 113.987 187.764 113.656 187.629 112.884C186.894 109.381 186.291 105.862 185.817 102.326C185.796 102.248 185.76 102.174 185.71 102.11C185.66 102.046 185.598 101.993 185.527 101.953C185.457 101.913 185.379 101.888 185.298 101.878C185.218 101.868 185.136 101.875 185.058 101.897C184.902 101.943 184.77 102.048 184.69 102.19C184.61 102.332 184.588 102.499 184.63 102.657H184.605Z" fill="#29319F"/>
<path d="M158.214 54.4702C163.306 48.1376 166.905 40.8006 171.679 34.2597C173.036 32.3955 174.525 30.6312 176.135 28.9805C176.227 28.8609 176.274 28.7116 176.265 28.5604C176.256 28.4092 176.193 28.2663 176.086 28.1585C175.98 28.0506 175.838 27.9851 175.687 27.9741C175.536 27.9631 175.386 28.0073 175.265 28.0986C169.561 33.9168 165.791 41.1925 161.372 47.9416C160.114 49.8913 158.757 51.7759 157.308 53.5883C156.806 54.213 157.675 55.0949 158.177 54.4702H158.214Z" fill="#E8563A"/>
<path d="M160.772 52.0695C162.127 53.3825 163.187 54.9692 163.882 56.724C163.93 56.8787 164.035 57.0091 164.176 57.0887C164.317 57.1684 164.483 57.1913 164.64 57.1528C164.72 57.1329 164.794 57.0972 164.86 57.048C164.925 56.9988 164.98 56.937 165.021 56.8662C165.062 56.7954 165.089 56.717 165.099 56.6358C165.109 56.5546 165.103 56.4722 165.081 56.3933C164.323 54.4338 163.15 52.6619 161.641 51.1998C161.078 50.6364 160.197 51.5183 160.772 52.0695Z" fill="#E8563A"/>
<path d="M163.881 47.9171C165.111 49.4547 166.208 51.0937 167.161 52.8166C167.553 53.5147 168.618 52.89 168.239 52.1919C167.237 50.365 166.086 48.6238 164.799 46.9861C164.682 46.8695 164.523 46.804 164.358 46.804C164.193 46.804 164.034 46.8695 163.917 46.9861C163.807 47.1041 163.746 47.2595 163.746 47.421C163.746 47.5824 163.807 47.7379 163.917 47.8558L163.881 47.9171Z" fill="#E8563A"/>
<path d="M167.161 44.3896L169.046 47.3415C169.135 47.4799 169.272 47.5797 169.431 47.6206C169.59 47.6615 169.759 47.6405 169.903 47.562C170.043 47.4778 170.144 47.3423 170.186 47.1844C170.227 47.0264 170.205 46.8586 170.124 46.7168L168.226 43.7649C168.14 43.6273 168.005 43.5279 167.848 43.4869C167.691 43.446 167.524 43.4665 167.382 43.5444C167.242 43.6285 167.14 43.7641 167.099 43.922C167.058 44.08 167.08 44.2478 167.161 44.3896Z" fill="#E8563A"/>
<path d="M145.495 61.5376C148.384 56.0379 151.138 50.4158 152.338 44.2791C153.46 38.5416 153.398 32.6351 152.154 26.9226C151.46 23.7273 150.396 20.6238 148.984 17.6748C148.641 16.9644 147.576 17.5891 147.919 18.2995C150.349 23.4368 151.695 29.0199 151.873 34.7006C152.055 40.4759 151.042 46.2265 148.898 51.5916C147.581 54.7942 146.089 57.9222 144.43 60.9619C144.063 61.6601 145.128 62.2848 145.495 61.5866V61.5376Z" fill="#E8563A"/>
<path d="M96.0183 99.1047C96.4395 99.2952 96.8484 99.512 97.2424 99.7539C97.5931 99.976 97.9285 100.222 98.2461 100.489C98.5779 100.768 98.8926 101.066 99.1886 101.383C99.4877 101.692 99.762 102.023 100.009 102.375C100.097 102.514 100.235 102.613 100.394 102.654C100.553 102.695 100.722 102.674 100.866 102.596C100.984 102.508 101.068 102.382 101.104 102.239C101.139 102.096 101.125 101.945 101.062 101.812C99.919 100.246 98.4101 98.9839 96.667 98.137C96.5232 98.0602 96.3555 98.0416 96.1984 98.0849C96.0412 98.1282 95.9066 98.2301 95.8224 98.3697C95.7415 98.5115 95.7193 98.6793 95.7605 98.8373C95.8016 98.9952 95.903 99.1308 96.0428 99.2149L96.0183 99.1047Z" fill="#E8563A"/>
<path d="M98.2953 95.8344L102.91 98.8231C103.054 98.8999 103.222 98.9186 103.379 98.8753C103.536 98.832 103.67 98.73 103.755 98.5904C103.833 98.4479 103.853 98.2811 103.812 98.1241C103.771 97.967 103.672 97.8315 103.534 97.7452L98.9196 94.7688C98.7779 94.6878 98.6102 94.6655 98.4523 94.7068C98.2945 94.748 98.159 94.8493 98.075 94.9892C98.0333 95.059 98.0059 95.1364 97.9944 95.2169C97.9829 95.2974 97.9876 95.3794 98.0081 95.458C98.0286 95.5367 98.0646 95.6105 98.1139 95.6751C98.1632 95.7397 98.2248 95.7939 98.2953 95.8344Z" fill="#E8563A"/>
<path d="M49.417 161.586C54.9377 164.035 60.5317 166.412 66.5542 167.134C67.3376 167.232 67.3376 165.995 66.5542 165.91C60.7521 165.211 55.3171 162.847 50.0168 160.532C49.2946 160.214 48.6581 161.28 49.3925 161.598L49.417 161.586Z" fill="#E8563A"/>
</svg>
