<svg width="249" height="255" viewBox="0 0 249 255" fill="none" xmlns="http://www.w3.org/2000/svg">
<g clip-path="url(#clip0_515_8749)">
<path d="M116.947 84.6603L80.8413 96.6166L88.1818 77.3443C91.591 80.1157 96.6515 78.0132 100.402 75.7197C102.756 74.2862 105.089 72.7996 107.38 71.2706C107.659 71.0787 107.868 70.8005 107.972 70.4789C108.077 70.1573 108.073 69.8102 107.96 69.4912C107.848 69.1722 107.633 68.8991 107.349 68.7141C107.065 68.529 106.727 68.4423 106.389 68.4673C104.589 68.6116 102.841 69.1403 101.265 70.0176C106.191 65.9839 110.654 61.4184 114.571 56.4049C114.775 56.1364 114.892 55.8119 114.905 55.4753C114.919 55.1386 114.828 54.806 114.646 54.5223C114.463 54.2386 114.198 54.0176 113.886 53.889C113.573 53.7604 113.229 53.7305 112.899 53.8033C112.074 53.972 111.303 54.3362 110.651 54.8652C111.755 54.5753 112.733 53.93 113.433 53.0296C114.132 52.1291 114.513 51.0238 114.518 49.8852C113.601 49.5455 112.6 49.5023 111.658 49.7615C110.715 50.0207 109.878 50.5693 109.266 51.3293L110.033 50.1082C110.202 49.8456 110.293 49.54 110.294 49.2277C110.295 48.9154 110.206 48.6093 110.038 48.3457C109.87 48.0821 109.629 47.872 109.345 47.7403C109.061 47.6085 108.745 47.5606 108.435 47.6022C106.818 47.8293 105.267 48.3882 103.879 49.2436C102.491 50.0989 101.296 51.2322 100.37 52.5716L102.745 48.6641C101.436 48.474 100.103 48.7975 99.0273 49.5666C79.3968 60.4654 64.6972 78.4406 57.9464 99.8021C57.0621 102.68 56.359 105.95 57.8505 108.562C59.2248 110.941 70.3367 115.623 72.9895 116.324C88.9702 120.519 96.2467 119.223 112.014 114.296L116.947 84.6603Z" fill="#CC7748"/>
<path d="M112.248 53.4741L104.631 58.9319C104.098 59.3142 103.565 58.4329 104.119 58.0506L111.737 52.5928C112.269 52.2211 112.802 53.0918 112.248 53.4741Z" fill="#7F4924"/>
<path d="M110.245 51.2654C107.001 52.6535 104.037 54.618 101.499 57.063C101.019 57.5196 100.305 56.8082 100.774 56.3516C103.374 53.8437 106.405 51.8223 109.723 50.3841C110.32 50.1292 110.842 51 110.245 51.2654Z" fill="#7F4924"/>
<path d="M102.787 50.3204L95.6492 55.6296C95.5314 55.6963 95.3922 55.7148 95.261 55.6811C95.1298 55.6475 95.0169 55.5642 94.9461 55.4491C94.8842 55.3306 94.8685 55.1935 94.9019 55.0641C94.9354 54.9347 95.0156 54.8223 95.1272 54.7483L102.276 49.4391C102.394 49.3723 102.533 49.3539 102.664 49.3875C102.795 49.4212 102.908 49.5044 102.979 49.6196C103.042 49.7372 103.057 49.8744 103.021 50.0028C102.986 50.1312 102.902 50.2411 102.787 50.3098V50.3204Z" fill="#7F4924"/>
<path d="M93.2627 55.2049C98.1347 56.5676 102.862 58.399 107.379 60.6734C107.965 60.9601 107.453 61.8414 106.868 61.5441C102.435 59.316 97.7969 57.5203 93.0176 56.1818C92.8985 56.1363 92.8008 56.048 92.7436 55.9343C92.6865 55.8206 92.674 55.6897 92.7087 55.5674C92.7434 55.445 92.8228 55.34 92.9312 55.2729C93.0396 55.2059 93.1692 55.1816 93.2946 55.2049H93.2627Z" fill="#7F4924"/>
<path d="M82.9612 72.0455C84.5411 73.5709 86.3856 74.7977 88.4052 75.6664C88.4631 75.6994 88.5138 75.7435 88.5544 75.7963C88.595 75.849 88.6245 75.9093 88.6414 75.9735C88.6583 76.0378 88.6621 76.1048 88.6526 76.1706C88.6432 76.2364 88.6207 76.2996 88.5864 76.3566C88.5157 76.469 88.4047 76.5502 88.276 76.5838C88.1473 76.6173 88.0106 76.6006 87.8938 76.5371C85.7953 75.6313 83.8786 74.3542 82.2367 72.7676C81.7679 72.311 82.4924 71.589 82.9612 72.0455Z" fill="#7F4924"/>
<path d="M81.48 96.0113L75.1516 107.691C74.8427 108.275 73.9691 107.755 74.278 107.182C76.4088 103.295 78.5147 99.4021 80.5957 95.5016C80.9154 94.9282 81.789 95.4379 81.48 96.0113Z" fill="#7F4924"/>
<path d="M176.938 51.1275C176.16 51.4209 175.509 51.9739 175.095 52.6923C174.682 53.4107 174.531 54.25 174.668 55.0669C174.85 55.8754 175.307 56.5963 175.961 57.1073C176.616 57.6182 177.428 57.8878 178.259 57.8702C176.741 59.3026 174.763 60.1528 172.676 60.2699C171.64 60.3128 170.607 60.1133 169.662 59.6874C168.717 59.2615 167.884 58.6209 167.232 57.8171C166.549 56.8574 166.057 55.776 165.783 54.6316C165.189 52.6772 165.068 50.6102 165.431 48.6003L176.938 51.1275Z" fill="#7F4924"/>
<path d="M192.364 51.3929L224.443 26.8857C229.439 23.0631 235.746 19.0387 241.574 21.396C248.275 24.1037 249.266 33.0125 248.946 40.2118C248.541 49.386 247.7 58.5497 246.453 67.6496C245.388 75.2842 244.067 83.1418 246.038 90.5853C246.826 93.5584 248.169 96.3935 248.584 99.4198C249.133 103.38 248.245 107.405 246.08 110.771C245.884 111.193 245.527 111.521 245.089 111.681C244.65 111.841 244.166 111.821 243.742 111.626C243.318 111.43 242.99 111.074 242.829 110.637C242.668 110.2 242.688 109.717 242.884 109.295L243.3 108.021C240.913 110.919 236.364 111.45 233.104 109.73C232.805 109.575 232.556 109.337 232.389 109.045C232.222 108.753 232.142 108.419 232.16 108.083C232.178 107.747 232.293 107.423 232.49 107.15C232.688 106.878 232.96 106.667 233.275 106.545L236.023 105.355C233.978 106.152 231.186 105.207 230.696 103.072C230.206 100.938 233.093 98.7296 234.723 100.195C233.971 100.271 233.218 100.06 232.615 99.6048C232.013 99.1498 231.605 98.4843 231.474 97.742C231.395 96.9908 231.603 96.2375 232.057 95.6329C232.512 95.0284 233.179 94.6173 233.924 94.4822C230.782 93.3354 229.546 89.4173 229.94 86.1043C230.334 82.7914 231.89 79.7333 232.529 76.431C234.404 66.8745 229.333 62.6271 229.418 52.9644L205.98 78.7033C201.601 71.5466 194.154 58.6452 191.522 50.6814L192.364 51.3929Z" fill="#CC7748"/>
<path d="M165.006 66.7896L191.459 48.4623C192.063 47.9252 192.845 47.6301 193.654 47.6341C194.401 47.8202 195.055 48.2689 195.497 48.8977C202.484 56.6878 208.459 65.325 213.278 74.6047C213.737 75.3019 213.954 76.13 213.896 76.962C213.686 77.6632 213.284 78.2921 212.735 78.7778C201.133 90.9358 189.296 103.2 174.893 111.854C175.989 98.3899 173.447 84.8789 167.531 72.7253L165.006 66.7896Z" fill="#FEA800"/>
<path d="M149.909 9.88574C146.713 14.7383 140.012 29.9969 139.096 29.9651L129.23 29.6253L136.944 35.2424C135.189 40.6507 133.439 46.0554 131.691 51.4566C131.437 51.9935 131.295 52.5766 131.275 53.17C131.255 53.7635 131.357 54.3548 131.574 54.9076C132.2 55.7324 133.119 56.2871 134.142 56.4579C136.849 57.2122 139.641 57.626 142.452 57.6896C142.153 61.4273 141.845 65.1225 141.546 68.9026C141.338 69.9385 141.516 71.0144 142.047 71.9288C142.642 72.561 143.421 72.9917 144.274 73.1606C149.547 74.679 166.561 73.4366 166.647 72.8633C167.762 66.1595 168.887 59.4558 170.024 52.7521C171.023 53.7075 172.258 54.3818 173.604 54.7064C174.949 55.0309 176.357 54.9941 177.684 54.5997C178.993 54.1579 180.107 53.2743 180.832 52.1014C181.558 50.9286 181.85 49.54 181.658 48.1756C181.114 45.4785 177.865 43.5672 175.361 44.714C177.996 38.435 180.372 32.064 182.489 25.6009L149.909 9.88574Z" fill="#CC7748"/>
<path d="M221.982 147.85C222.429 144.728 226.062 141.745 224.315 139.111C223.737 138.426 223.045 137.844 222.27 137.391C220.525 135.995 219.387 133.984 219.089 131.774C218.792 129.564 219.358 127.325 220.672 125.52C222.451 123.269 225.242 122.079 227.383 120.157C234.937 113.383 232.242 100.099 239.103 92.5497C240.999 90.4791 244.952 89.3642 246.23 91.8276C246.56 92.6306 246.684 93.5027 246.592 94.3654C246.028 115.146 245.442 136.096 240.86 156.387C240.823 156.812 240.691 157.224 240.474 157.591C240.256 157.959 239.959 158.273 239.603 158.511C238.985 158.716 238.313 158.697 237.707 158.458C231.389 156.716 224.592 153.435 222.642 147.202L221.982 147.85Z" fill="#CC7748"/>
<path d="M39.6322 222.306C40.7722 237.745 30.2569 238.404 23.9392 240.623C17.0142 243.065 9.63119 243.808 2.43989 245.252C1.81803 245.366 1.24807 245.672 0.811716 246.128C0.375365 246.584 0.0950565 247.166 0.0108618 247.79C-0.202214 249.68 1.66218 250.508 3.26025 250.551C4.5799 250.419 5.91066 250.448 7.22342 250.636L5.14592 251.698C6.03531 252.397 7.0877 252.861 8.20524 253.047C9.32279 253.233 10.4693 253.134 11.5382 252.76C11.4231 252.979 11.3683 253.225 11.3794 253.472C11.3904 253.719 11.467 253.959 11.6012 254.167C11.7354 254.375 11.9224 254.544 12.1434 254.657C12.3644 254.77 12.6114 254.822 12.8593 254.809C25.3562 254.087 37.885 253.46 50.3606 254.374C54.1 254.65 58.5959 254.713 60.6734 251.613C62.9214 248.268 60.6734 243.914 59.5015 240.081C58.0632 235.409 58.2976 230.429 58.3083 225.555C58.3083 224.961 58.3083 224.281 57.4986 224.069C57.2085 223.995 56.9044 223.995 56.6143 224.069L39.5683 216.275L39.6322 222.306Z" fill="#CC7748"/>
<path d="M183.171 91.2223C183.543 100.779 177.109 114.466 171.803 122.419C167.687 128.617 164.329 135.283 161.799 142.275C161.275 143.509 160.996 144.833 160.979 146.172C161.171 150.09 165.453 154.125 163.056 157.226L117.629 153.849C116.093 153.888 114.584 153.447 113.314 152.586C112.089 151.524 111.726 149.825 111.428 148.243C109.66 138.623 108.271 128.942 107.262 119.202C106.336 110.197 103.747 91.4134 111.769 87.1448C123.094 81.1242 120.835 81.1985 127.537 77.1211C131.193 74.8195 135.03 72.8167 139.011 71.1323C145.323 68.4931 151.887 66.4974 158.603 65.1754C166.849 63.5083 182.105 63.3597 183.171 91.2223Z" fill="#FEA800"/>
<path d="M110.916 143.337L147.384 149.613C150.665 150.186 154.021 150.781 156.919 152.427C160.765 154.614 163.386 158.426 165.613 162.238C168.803 167.716 171.481 173.474 173.614 179.44C174.679 182.402 175.659 185.513 177.822 187.818C179.352 189.293 181.098 190.528 183 191.481L207.876 205.529C206.811 194.401 210.252 183.4 213.661 172.75C216.807 162.932 219.954 153.106 223.1 143.274C229.513 147.381 236.638 150.262 244.11 151.768C241.084 171.787 238.055 191.807 235.022 211.826C234.106 217.91 233.157 224.09 230.462 229.622C227.767 235.154 223.004 240.028 216.974 241.302C210.753 242.619 204.446 240.028 198.629 237.48L146.425 214.682C117.244 201.94 86.764 188.211 67.3635 163.013C66.4472 187.676 64.4621 212.268 61.408 236.79C56.6161 236.562 51.9301 235.304 47.6713 233.103C43.4125 230.902 39.6815 227.809 36.7339 224.037C39.0777 202.121 31.5987 131.657 37.3198 125.127C42.7958 118.926 52.2351 117.588 60.2787 119.701C68.3223 121.814 110.916 143.337 110.916 143.337Z" fill="#0D6EFD"/>
<path d="M107.944 85.9981C106.581 98.2588 105.487 110.548 104.663 122.865C106.559 123.059 108.473 122.797 110.246 122.101C112.707 110.197 113.761 96.9456 114.433 84.8088C112.142 84.915 110.352 85.9556 108.04 85.6052L107.944 85.9981Z" fill="#FD7E14"/>
<path d="M107.305 121.304C114.686 121.682 122.085 121.075 129.305 119.499C134.227 118.437 138.947 116.622 143.815 115.337C145.094 115.008 146.383 114.7 147.693 114.487C148.745 114.276 149.819 114.198 150.89 114.254C151.539 114.317 151.539 115.315 150.89 115.315C148.809 115.268 146.735 115.566 144.753 116.197C142.271 116.823 139.831 117.588 137.391 118.32C135.143 119.032 132.906 119.711 130.615 120.253C127.022 121.089 123.378 121.689 119.706 122.048C115.589 122.447 111.447 122.54 107.316 122.324C106.666 122.324 106.655 121.262 107.316 121.315L107.305 121.304Z" fill="#FE704C"/>
<path d="M134.483 118.99H143.741C143.882 118.99 144.018 119.045 144.117 119.145C144.217 119.245 144.273 119.38 144.273 119.52C144.273 119.661 144.217 119.796 144.117 119.896C144.018 119.995 143.882 120.051 143.741 120.051H134.483C134.361 120.034 134.25 119.973 134.17 119.88C134.089 119.788 134.045 119.669 134.045 119.547C134.045 119.424 134.089 119.306 134.17 119.214C134.25 119.121 134.361 119.06 134.483 119.043V118.99Z" fill="#FE704C"/>
<path d="M188.348 49.0568C197.17 58.9928 205.313 69.5073 212.723 80.5296C213.625 80.3852 214.487 80.0582 215.257 79.5687C216.026 79.0793 216.687 78.4378 217.198 77.6839L194.825 44.9263L188.348 49.0568Z" fill="#FD7E14"/>
<path d="M158.336 145.344C156.912 144.142 155.223 143.291 153.408 142.859C151.592 142.428 149.7 142.428 147.885 142.86C147.246 143.008 146.979 142.031 147.618 141.883C149.606 141.408 151.679 141.41 153.666 141.888C155.653 142.366 157.498 143.307 159.05 144.633C159.551 145.058 158.826 145.769 158.336 145.344Z" fill="#FE704C"/>
<path d="M151.848 146.013L157.047 145.418C157.183 145.418 157.313 145.472 157.409 145.568C157.505 145.663 157.559 145.793 157.559 145.928C157.556 146.062 157.501 146.191 157.406 146.286C157.311 146.381 157.182 146.435 157.047 146.438L151.848 147.032C151.781 147.032 151.715 147.019 151.653 146.994C151.591 146.968 151.534 146.931 151.487 146.883C151.439 146.836 151.402 146.78 151.376 146.718C151.35 146.656 151.337 146.59 151.337 146.523C151.34 146.388 151.394 146.26 151.49 146.165C151.585 146.07 151.714 146.016 151.848 146.013Z" fill="#FE704C"/>
<path d="M176.767 189.432C175.277 197.025 171.279 203.903 165.41 208.969C163.781 210.37 162.022 211.614 160.158 212.686C160.041 212.745 159.906 212.758 159.78 212.721C159.654 212.684 159.547 212.601 159.482 212.487C159.416 212.374 159.397 212.24 159.427 212.113C159.458 211.986 159.537 211.875 159.647 211.804C166.175 208.034 171.24 202.185 174.029 195.197C174.808 193.249 175.393 191.228 175.776 189.166C175.904 188.529 176.842 188.794 176.767 189.432Z" fill="#19237C"/>
<path d="M208.835 205.264L215.866 220.225C216.133 220.809 215.259 221.287 214.982 220.735L207.951 205.773C207.674 205.189 208.558 204.711 208.835 205.264Z" fill="#19237C"/>
<path d="M209.325 205.54C211.782 209.26 214.68 212.672 217.955 215.702C218.434 216.147 217.721 216.87 217.241 216.424C213.9 213.331 210.945 209.848 208.441 206.049C208.09 205.508 208.963 204.988 209.325 205.54Z" fill="#19237C"/>
<path d="M221.14 151.12C225.94 154.608 231.392 157.103 237.174 158.458C238.814 158.84 240.476 159.127 242.149 159.318C242.799 159.392 242.799 160.38 242.149 160.38C236.115 159.691 230.279 157.806 224.986 154.837C223.48 153.991 222.025 153.059 220.629 152.044C220.107 151.662 220.629 150.781 221.14 151.163V151.12Z" fill="#19237C"/>
<path d="M39.9302 217.666C44.9637 221.066 50.4504 223.747 56.2305 225.63C57.8499 226.15 59.5012 226.617 61.1526 227.01C61.7918 227.159 61.5255 228.135 60.8862 227.987C54.9185 226.567 49.1805 224.319 43.8402 221.308C42.3167 220.448 40.8252 219.513 39.3763 218.537C38.8329 218.175 39.3762 217.294 39.8876 217.666H39.9302Z" fill="#19237C"/>
<path d="M62.0477 149.793C65.2016 154.081 67.7137 158.802 69.5053 163.81C69.7184 164.425 68.7382 164.691 68.5251 164.086C66.7533 159.152 64.2698 154.502 61.1527 150.282C60.7586 149.751 61.6428 149.22 62.0263 149.772L62.0477 149.793Z" fill="#19237C"/>
<path d="M67.9076 151.089L71.2209 163.831C71.2393 163.954 71.2117 164.08 71.1432 164.185C71.0747 164.289 70.97 164.365 70.8492 164.398C70.7283 164.43 70.5997 164.418 70.4875 164.362C70.3754 164.307 70.2876 164.212 70.2408 164.096L66.9274 151.354C66.909 151.231 66.9367 151.105 67.0052 151C67.0737 150.896 67.1783 150.82 67.2992 150.787C67.42 150.755 67.5487 150.767 67.6609 150.823C67.773 150.878 67.8608 150.973 67.9076 151.089Z" fill="#19237C"/>
<path d="M111.204 143.836C118.726 150.156 125.671 157.128 131.957 164.669C133.747 166.793 135.473 169.002 137.157 171.221C137.551 171.741 136.666 172.283 136.283 171.731C130.387 163.928 123.813 156.659 116.637 150.006C114.627 148.137 112.571 146.321 110.469 144.558C109.968 144.134 110.693 143.422 111.183 143.836H111.204Z" fill="#19237C"/>
<path d="M112.919 144.165C120.821 148.955 128.444 154.188 135.75 159.838C137.796 161.42 139.82 163.024 141.812 164.691C142.313 165.105 141.589 165.827 141.088 165.413C134.039 159.578 126.658 154.154 118.981 149.167C116.851 147.765 114.613 146.385 112.397 145.047C111.843 144.707 112.397 143.826 112.919 144.165Z" fill="#19237C"/>
<path d="M171.153 49.3223C172.525 47.9671 174.165 46.9112 175.968 46.2218C176.098 46.1857 176.237 46.2023 176.355 46.268C176.473 46.3336 176.56 46.4429 176.597 46.5722C176.63 46.703 176.611 46.8415 176.543 46.9584C176.475 47.0752 176.365 47.1614 176.235 47.1986C174.6 47.8352 173.116 48.8044 171.877 50.0444C171.781 50.1401 171.651 50.1939 171.515 50.1939C171.379 50.1939 171.249 50.1401 171.153 50.0444C171.057 49.9486 171.003 49.8187 171.003 49.6833C171.003 49.5479 171.057 49.4181 171.153 49.3223Z" fill="#7F4924"/>
<path d="M174.221 47.7719L175.979 50.0761C176.027 50.1991 176.027 50.3354 175.979 50.4584C175.965 50.5234 175.936 50.5845 175.896 50.6376C175.855 50.6907 175.804 50.7346 175.745 50.7663C175.628 50.8298 175.491 50.8465 175.363 50.813C175.234 50.7794 175.123 50.6982 175.052 50.5858L173.305 48.2816C173.271 48.2249 173.248 48.1617 173.239 48.0959C173.23 48.0302 173.234 47.9633 173.252 47.8993C173.268 47.8351 173.298 47.7747 173.338 47.7219C173.378 47.669 173.429 47.6246 173.486 47.5914C173.603 47.5279 173.74 47.5112 173.868 47.5448C173.997 47.5783 174.108 47.6596 174.179 47.7719H174.221Z" fill="#7F4924"/>
<path d="M5.39123 250.71C6.60165 249.166 8.30402 248.08 10.2174 247.631C10.8566 247.482 11.1229 248.459 10.4837 248.608C8.74191 249.014 7.19478 250.008 6.10502 251.422C6.05919 251.47 6.0039 251.509 5.94252 251.535C5.88114 251.562 5.81495 251.575 5.74809 251.575C5.68123 251.575 5.61511 251.562 5.55373 251.535C5.49235 251.509 5.43705 251.47 5.39123 251.422C5.29817 251.326 5.24609 251.199 5.24609 251.066C5.24609 250.933 5.29817 250.805 5.39123 250.71Z" fill="#7F4924"/>
<path d="M9.51374 252.462C9.94787 251.653 10.5446 250.941 11.2667 250.371C11.9889 249.801 12.821 249.385 13.7113 249.149C13.8352 249.131 13.9615 249.159 14.0663 249.227C14.1712 249.295 14.2472 249.399 14.28 249.52C14.3129 249.64 14.3002 249.769 14.2445 249.88C14.1888 249.992 14.0938 250.08 13.9777 250.126C13.215 250.326 12.5025 250.682 11.886 251.172C11.2696 251.662 10.7627 252.275 10.398 252.972C10.3639 253.03 10.3186 253.081 10.2648 253.121C10.2109 253.162 10.1495 253.191 10.0841 253.208C10.0188 253.225 9.95072 253.229 9.8839 253.219C9.81709 253.21 9.75283 253.187 9.69484 253.152C9.58005 253.084 9.49679 252.973 9.46293 252.844C9.42907 252.715 9.44732 252.578 9.51374 252.462Z" fill="#7F4924"/>
<path d="M11.6339 254.235C12.6273 252.912 14.0981 252.024 15.7356 251.761C15.8641 251.728 16.0003 251.747 16.1156 251.812C16.2309 251.877 16.3162 251.985 16.3535 252.112C16.3896 252.241 16.373 252.38 16.3071 252.497C16.2413 252.614 16.1316 252.701 16.0019 252.738C15.3074 252.837 14.6383 253.068 14.031 253.418C13.4415 253.757 12.924 254.208 12.5075 254.745C12.4387 254.86 12.3277 254.943 12.1982 254.976C12.0687 255.01 11.9311 254.992 11.815 254.926C11.7002 254.857 11.6169 254.746 11.583 254.617C11.5492 254.488 11.5674 254.351 11.6339 254.235Z" fill="#7F4924"/>
<path d="M47.207 237.554C46.8326 237.97 46.6193 238.505 46.6057 239.064C46.592 239.623 46.7788 240.168 47.1325 240.601C48.0715 241.658 49.3399 242.368 50.7335 242.619C50.8526 242.664 50.9503 242.753 51.0074 242.866C51.0646 242.98 51.0771 243.111 51.0424 243.233C51.0077 243.356 50.9283 243.461 50.8199 243.528C50.7115 243.595 50.5819 243.619 50.4564 243.596C48.7641 243.271 47.2488 242.343 46.1949 240.984C45.7671 240.358 45.5666 239.605 45.6266 238.85C45.6867 238.095 46.0037 237.383 46.5252 236.832C47.0046 236.397 47.7291 237.108 47.239 237.554H47.207Z" fill="#7F4924"/>
<path d="M235.959 94.0468C234.987 94.3304 234.062 94.7525 233.211 95.2997C232.614 95.6926 231.154 96.5633 231.751 97.4234C232.343 98.1247 233.146 98.6163 234.042 98.825C234.969 99.0734 235.918 99.2335 236.876 99.3029V100.365C235.798 100.218 234.701 100.335 233.679 100.704C233.184 100.836 232.72 101.064 232.314 101.376C231.908 101.687 231.568 102.076 231.314 102.52C231.133 103.009 231.421 103.253 231.858 103.402C232.454 103.604 233.067 103.753 233.69 103.848C234.912 104.051 236.155 104.09 237.387 103.964V104.973C236.473 104.95 235.563 105.093 234.702 105.398C234.106 105.61 232.902 105.982 233.243 106.821C233.584 107.659 234.66 107.723 235.373 107.808C236.402 107.943 237.446 107.907 238.463 107.702C238.548 108.031 238.644 108.36 238.729 108.679C237.538 108.884 236.383 109.26 235.299 109.794C235.086 109.9 234.233 110.25 234.233 110.548C234.233 110.845 235.363 111.132 235.65 111.195C236.788 111.408 237.954 111.408 239.092 111.195C240.211 111.028 241.321 110.801 242.416 110.516C243.516 110.266 244.533 109.735 245.367 108.976C246.091 108.221 246.65 107.325 247.007 106.343C247.772 104.37 248.086 102.251 247.924 100.142C247.837 98.9499 247.605 97.7731 247.231 96.6376C247.043 96.0481 246.811 95.4732 246.539 94.9175C246.411 94.6414 246.272 94.3865 246.134 94.1211L245.921 93.7601L245.771 93.5265C245.569 93.2822 245.654 93.0062 246.027 92.7195L245.633 92.6664L245.324 92.9C245.601 92.3054 246.475 92.815 246.208 93.4097C245.942 94.0043 245.196 93.6751 245.09 93.1761C244.94 92.454 245.835 92.2629 246.283 92.677C246.737 93.1835 247.097 93.7658 247.348 94.3972C247.661 95.0322 247.928 95.6887 248.147 96.3616C249.019 98.9887 249.173 101.8 248.595 104.506C248.03 107.171 246.741 109.9 244.099 111.036C242.754 111.553 241.352 111.91 239.923 112.098C238.463 112.423 236.954 112.463 235.48 112.215C234.712 112.131 233.994 111.791 233.445 111.249C233.34 111.114 233.264 110.958 233.224 110.792C233.184 110.626 233.18 110.453 233.212 110.285C233.244 110.117 233.312 109.958 233.411 109.818C233.51 109.679 233.638 109.562 233.786 109.475C234.446 109.029 235.162 108.672 235.917 108.413C236.73 108.086 237.577 107.848 238.442 107.702C239.081 107.596 239.358 108.551 238.708 108.679C237.398 108.939 236.052 108.96 234.734 108.743C234.188 108.72 233.66 108.543 233.213 108.23C232.765 107.918 232.417 107.484 232.209 106.98C231.868 105.769 232.827 105.079 233.807 104.655C234.928 104.167 236.143 103.931 237.366 103.964C237.487 103.982 237.598 104.043 237.679 104.135C237.759 104.228 237.803 104.346 237.803 104.469C237.803 104.591 237.759 104.71 237.679 104.802C237.598 104.895 237.487 104.955 237.366 104.973C235.831 105.13 234.28 105.04 232.774 104.708C231.613 104.453 229.94 104.017 230.26 102.478C230.47 101.882 230.816 101.342 231.271 100.902C231.726 100.462 232.276 100.132 232.88 99.94C234.12 99.3906 235.486 99.1851 236.833 99.3453C237.472 99.4197 237.494 100.407 236.833 100.407C235.628 100.328 234.436 100.104 233.285 99.7382C232.731 99.5868 232.213 99.3266 231.761 98.9728C231.309 98.6191 230.933 98.1789 230.654 97.6782C230.174 96.4465 231.293 95.4802 232.188 94.8219C233.237 94.0684 234.408 93.5008 235.65 93.1442C236.279 92.9531 236.545 93.93 235.917 94.1211L235.959 94.0468Z" fill="#7F4924"/>
<path d="M235.96 76.1868L239.39 76.9513C239.519 76.9908 239.628 77.0774 239.695 77.1936C239.762 77.3098 239.783 77.4471 239.753 77.5778C239.713 77.7055 239.626 77.8131 239.509 77.8783C239.392 77.9436 239.254 77.9614 239.124 77.9282L235.694 77.1637C235.564 77.1266 235.454 77.0399 235.388 76.9226C235.322 76.8053 235.306 76.6667 235.342 76.5372C235.359 76.4736 235.389 76.4141 235.429 76.362C235.47 76.3099 235.52 76.2663 235.578 76.2337C235.635 76.2012 235.698 76.1803 235.764 76.1722C235.83 76.1641 235.896 76.1691 235.96 76.1868Z" fill="#7F4924"/>
<path d="M228.427 53.4848C231.474 49.3278 234.004 44.8174 235.959 40.0526C236.513 38.7041 237.025 37.3237 237.483 35.9433C237.685 35.3274 238.665 35.5929 238.463 36.2087C236.822 41.1577 234.59 45.8921 231.815 50.3099C231.016 51.5735 230.185 52.7946 229.301 53.9945C228.917 54.5254 228.033 53.9945 228.427 53.4848Z" fill="#7F4924"/>
<path opacity="0.54" d="M142.452 57.6895L157.293 58.6557L142.292 62.6695L142.452 57.6895Z" fill="#7F4924"/>
<path d="M176.107 43.9176C174.552 42.8558 172.006 43.5778 170.908 42.0488C170.226 41.0931 170.535 39.7765 170.908 38.6403L174.349 27.2468C174.59 26.6957 174.617 26.075 174.424 25.5054C174.138 25.0581 173.705 24.724 173.199 24.5604C164.271 20.621 153.01 21.3749 146.01 14.6004C144.061 12.7103 142.548 9.80083 143.688 7.34799C144.647 5.28803 147.182 4.36425 149.441 4.57661C151.69 4.95456 153.837 5.78947 155.748 7.02945C154.541 6.23224 153.564 5.13403 152.914 3.84394C152.392 2.50603 152.808 0.658433 154.15 0.15937C154.704 0.0337916 155.279 0.0344507 155.832 0.161314C156.386 0.288178 156.903 0.537972 157.346 0.892039C161.97 3.80147 164.974 8.68592 169.332 11.9776C171.436 13.5634 173.816 14.7477 176.352 15.471C178.76 16.1612 181.338 16.4373 183.501 17.7115C185.664 18.9857 187.262 21.7252 186.207 23.9976C187.997 23.8595 189.403 25.6859 189.563 27.4698C189.533 29.2679 189.017 31.0247 188.072 32.556C185.713 37.2281 183.228 41.8294 180.614 46.3599C178.206 44.1513 176.842 44.714 174.946 43.8858L176.107 43.9176Z" fill="#7F4924"/>
<path d="M178.249 44.1511C175.724 43.8644 173.465 44.0024 172.016 46.1049C171.027 47.6513 170.307 49.3528 169.885 51.138C169.738 51.6651 169.392 52.115 168.919 52.394C168.447 52.6729 167.885 52.7593 167.35 52.6352C167.063 52.5642 166.794 52.4347 166.561 52.2546C166.327 52.0746 166.133 51.8481 165.992 51.5895C165.85 51.3308 165.765 51.0457 165.74 50.7523C165.715 50.4589 165.752 50.1635 165.848 49.885C169.165 40.4559 172.03 30.8817 174.445 21.1624L178.249 44.1511Z" fill="#7F4924"/>
<path d="M137.508 40.7638C138.313 40.9895 139.159 41.0236 139.979 40.8631C140.799 40.7026 141.569 40.3521 142.228 39.84C142.328 39.7512 142.457 39.7021 142.59 39.7021C142.724 39.7021 142.853 39.7512 142.953 39.84C143.046 39.937 143.099 40.0664 143.099 40.2011C143.099 40.3357 143.046 40.4651 142.953 40.5621C142.163 41.1959 141.233 41.6333 140.24 41.8382C139.247 42.0432 138.22 42.0098 137.242 41.7407C137.126 41.6941 137.031 41.6066 136.975 41.4948C136.92 41.383 136.907 41.2548 136.94 41.1343C136.973 41.0139 137.049 40.9096 137.153 40.8413C137.258 40.773 137.385 40.7455 137.508 40.7638Z" fill="#7F4924"/>
<path d="M147.629 33.0975C147.118 34.5203 145.989 35.4229 145.094 35.1043C144.199 34.7858 143.879 33.3842 144.391 31.9188C144.902 30.4535 146.031 29.5934 146.926 29.9014C147.821 30.2093 148.13 31.6746 147.629 33.0975Z" fill="black"/>
<path d="M172.431 21.7463C169.898 20.057 167.095 18.8076 164.143 18.0511C161.17 17.2972 157.964 17.3503 155.108 16.1504C153.699 15.5997 152.481 14.6514 151.603 13.4215C151.556 13.3448 151.531 13.2566 151.531 13.1667C151.531 13.0767 151.556 12.9886 151.603 12.9118C152.402 11.5315 154.181 11.6695 155.513 12.0624C156.451 12.349 157.356 12.7313 158.283 13.0711L161.479 14.2497C161.351 14.5577 161.224 14.8762 161.085 15.1842C158.525 13.5098 156.531 11.1043 155.364 8.28222C155.333 8.1743 155.339 8.05899 155.381 7.95493C155.424 7.85087 155.5 7.76414 155.598 7.70881C156.111 7.50485 156.668 7.43678 157.215 7.51121C157.762 7.58565 158.281 7.80008 158.72 8.13358C159.785 8.7282 160.851 9.36529 161.916 10.0449C163.951 11.4111 165.862 12.9532 167.626 14.6532C168.106 15.1098 167.381 15.8319 166.913 15.3753C165.321 13.8216 163.603 12.401 161.778 11.1279C160.872 10.5121 159.934 9.91744 158.976 9.37591C158.241 8.95117 157.026 8.0486 156.152 8.53705L156.387 7.96368C157.468 10.541 159.302 12.7349 161.65 14.2604C162.097 14.5577 161.82 15.3965 161.256 15.1842L155.822 13.1773C154.906 12.8375 153.169 12.2959 152.541 13.379V12.8694C154.171 15.2266 157.228 15.8319 159.881 16.2141C161.429 16.4066 162.965 16.6795 164.484 17.0317C165.898 17.3942 167.28 17.8701 168.617 18.4546C170.148 19.1127 171.617 19.9051 173.007 20.8225C173.55 21.1835 173.007 22.0649 172.495 21.7038L172.431 21.7463Z" fill="#4C2911"/>
<path d="M177.247 20.8757C177.692 20.6134 178.205 20.4885 178.72 20.5169C179.236 20.5452 179.732 20.7255 180.145 21.0349C180.601 21.3904 180.966 21.8474 181.212 22.3693C181.458 22.8913 181.578 23.4635 181.562 24.0399C181.551 25.2549 181.277 26.4533 180.759 27.5529C180.24 28.6526 179.489 29.6275 178.558 30.4109L177.94 29.6146C178.874 28.8868 180.036 28.5109 181.221 28.5527C181.805 28.5944 182.356 28.8397 182.776 29.2454C183.197 29.6512 183.461 30.1916 183.522 30.772C183.564 32.1008 183.143 33.403 182.329 34.4565C181.574 35.5963 180.613 36.5865 179.495 37.3766C178.962 37.7588 178.43 36.8775 178.984 36.4953C179.877 35.856 180.658 35.0739 181.296 34.1805C181.964 33.34 182.391 32.3344 182.531 31.271C182.559 31.0557 182.54 30.837 182.475 30.6296C182.411 30.4222 182.304 30.2308 182.16 30.068C182.015 29.9053 181.838 29.775 181.64 29.6859C181.441 29.5967 181.226 29.5507 181.008 29.5509C180.081 29.5828 179.188 29.9103 178.462 30.4853C177.993 30.8251 177.396 30.0712 177.844 29.6889C179.324 28.4435 180.278 26.6882 180.518 24.7726C180.599 24.3202 180.584 23.8559 180.473 23.4097C180.363 22.9635 180.161 22.5452 179.879 22.1817C179.622 21.8836 179.269 21.6837 178.88 21.6159C178.492 21.5481 178.091 21.6167 177.748 21.8101C177.205 22.1605 176.683 21.2898 177.237 20.9288L177.247 20.8757Z" fill="#4C2911"/>
<path d="M175.745 33.5329L176.117 36.3999C176.117 36.5332 176.065 36.6613 175.971 36.7565C175.878 36.8518 175.75 36.9067 175.617 36.9095C175.482 36.9068 175.353 36.8523 175.258 36.7572C175.163 36.6622 175.108 36.5342 175.105 36.3999L174.732 33.5329C174.732 33.466 174.746 33.3997 174.771 33.3378C174.797 33.276 174.835 33.2198 174.882 33.1725C174.93 33.1252 174.986 33.0876 175.048 33.062C175.11 33.0364 175.177 33.0232 175.244 33.0232C175.378 33.026 175.505 33.0809 175.599 33.1762C175.692 33.2715 175.745 33.3995 175.745 33.5329Z" fill="#4C2911"/>
<path d="M147.981 21.8526C147.791 21.9954 147.633 22.1757 147.515 22.3823C147.398 22.5888 147.325 22.8172 147.3 23.0532C147.275 23.2892 147.299 23.5278 147.37 23.7542C147.442 23.9806 147.559 24.1899 147.715 24.3691C148.39 25.0639 149.252 25.5505 150.197 25.7708L154.97 27.3635C155.146 27.4469 155.345 27.4693 155.535 27.4272C155.908 27.2998 155.94 26.7795 155.833 26.3654C155.066 23.3179 151.465 22.118 148.376 21.3535L147.981 21.8526Z" fill="#4C2911"/>
<path d="M222.206 130.5C223.84 130.301 225.403 129.715 226.763 128.792C228.123 127.868 229.242 126.633 230.026 125.191C230.335 124.617 231.209 125.127 230.9 125.7C230.023 127.289 228.775 128.645 227.262 129.652C225.749 130.66 224.015 131.289 222.206 131.487C221.556 131.562 221.556 130.542 222.206 130.479V130.5Z" fill="#7F4924"/>
<path d="M236.876 115.57C236.386 117.232 235.669 118.818 234.745 120.285C234.394 120.837 233.52 120.285 233.872 119.775C234.749 118.383 235.434 116.88 235.907 115.305C236.099 114.678 237.079 114.944 236.887 115.57H236.876Z" fill="#7F4924"/>
<path d="M113.441 84.6282C118.417 83.8637 122.412 80.5933 126.279 77.6201C128.287 76.0096 130.425 74.5676 132.672 73.3091C135.44 71.9365 138.286 70.724 141.195 69.6776L151.561 65.5895C152.168 65.3559 152.434 66.3328 151.827 66.5664L142.643 70.1873C139.724 71.334 136.741 72.3959 133.929 73.7869C129.316 76.0805 125.629 79.7332 121.336 82.494C119.045 84.0565 116.45 85.1202 113.718 85.6158C113.079 85.7113 112.802 84.7344 113.452 84.6282H113.441Z" fill="#FE704C"/>
<path d="M114.699 135.798C116.505 135.184 118.395 134.851 120.303 134.811C120.444 134.811 120.58 134.867 120.679 134.966C120.779 135.066 120.835 135.201 120.835 135.342C120.835 135.483 120.779 135.618 120.679 135.717C120.58 135.817 120.444 135.873 120.303 135.873C118.489 135.916 116.693 136.235 114.976 136.818C114.358 137.03 114.092 136.053 114.71 135.841L114.699 135.798Z" fill="#FE704C"/>
<path d="M116.829 138.591C118.141 138.692 119.461 138.606 120.749 138.336C120.881 138.306 121.018 138.326 121.135 138.393C121.252 138.46 121.338 138.569 121.378 138.697C121.411 138.825 121.393 138.961 121.327 139.076C121.262 139.191 121.154 139.276 121.026 139.313C119.648 139.608 118.235 139.708 116.829 139.61C116.696 139.605 116.57 139.549 116.477 139.454C116.384 139.36 116.331 139.233 116.328 139.101C116.331 138.968 116.384 138.841 116.477 138.747C116.57 138.652 116.696 138.596 116.829 138.591Z" fill="#FE704C"/>
</g>
<defs>
<clipPath id="clip0_515_8749">
<rect width="249" height="255" fill="white"/>
</clipPath>
</defs>
</svg>
